<?xml version="1.0" encoding="UTF-8" standalone="no"?>
<!-- Created with Inkscape (http://www.inkscape.org/) -->

<svg
   width="15.584582mm"
   height="12.4256mm"
   viewBox="0 0 15.584583 12.4256"
   version="1.1"
   id="svg1"
   inkscape:version="1.4.3 (0d15f75042, 2025-12-25)"
   sodipodi:docname="CRT_dot.svg"
   xmlns:inkscape="http://www.inkscape.org/namespaces/inkscape"
   xmlns:sodipodi="http://sodipodi.sourceforge.net/DTD/sodipodi-0.dtd"
   xmlns="http://www.w3.org/2000/svg"
   xmlns:svg="http://www.w3.org/2000/svg">
  <sodipodi:namedview
     id="namedview1"
     pagecolor="#ffffff"
     bordercolor="#000000"
     borderopacity="0.25"
     inkscape:showpageshadow="2"
     inkscape:pageopacity="0.0"
     inkscape:pagecheckerboard="0"
     inkscape:deskcolor="#d1d1d1"
     inkscape:document-units="mm"
     inkscape:zoom="11.313708"
     inkscape:cx="17.942835"
     inkscape:cy="30.670757"
     inkscape:window-width="2560"
     inkscape:window-height="1528"
     inkscape:window-x="0"
     inkscape:window-y="1440"
     inkscape:window-maximized="1"
     inkscape:current-layer="layer1" />
  <defs
     id="defs1" />
  <g
     inkscape:label="Layer 1"
     inkscape:groupmode="layer"
     id="layer1"
     transform="translate(-83.458049,-89.921046)">
    <rect
       style="fill:#000000;fill-opacity:1;stroke:#000000;stroke-width:0.0473121;stroke-linejoin:round;stroke-dasharray:none"
       id="rect5-5-1"
       width="15.537271"
       height="12.378288"
       x="83.481705"
       y="89.944702" />
    <path
       id="rect2"
       style="fill:#660000;fill-opacity:1;stroke:none;stroke-width:0.4;stroke-linejoin:round;stroke-opacity:1"
       d="m 99.042631,99.521496 a 1.1439706,1.1226143 0 0 0 -1.061434,1.119824 1.1439706,1.1226143 0 0 0 1.061434,1.11932 z" />
    <path
       id="path3"
       style="fill:#660000;fill-opacity:1;stroke:none;stroke-width:0.4;stroke-linejoin:round;stroke-opacity:1"
       d="m 99.042631,93.375101 a 1.1439706,1.1226143 0 0 0 -1.061434,1.119828 1.1439706,1.1226143 0 0 0 1.061434,1.119828 z" />
    <path
       id="path4"
       style="fill:#005700;fill-opacity:1;stroke:none;stroke-width:0.4;stroke-linejoin:round;stroke-opacity:1"
       d="m 83.458052,95.59202 a 1.1439706,1.1226143 0 0 0 0.901237,-1.097091 1.1439706,1.1226143 0 0 0 -0.901237,-1.097091 z" />
    <path
       id="path5"
       style="fill:#005700;fill-opacity:1;stroke:none;stroke-width:0.4;stroke-linejoin:round;stroke-opacity:1"
       d="m 83.458052,101.73841 a 1.1439706,1.1226143 0 0 0 0.901237,-1.09709 1.1439706,1.1226143 0 0 0 -0.901237,-1.097087 z" />
    <g
       id="g1"
       transform="matrix(1.18182,0,0,1,-110.49634,86.828751)">
      <rect
         style="fill:#ff0000;fill-opacity:1;stroke:none;stroke-width:0.123659;stroke-linejoin:round;stroke-dasharray:none"
         id="rect6"
         width="1.0800536"
         height="31.859081"
         x="145.22903"
         y="44.808304" />
      <rect
         style="fill:#66ff00;fill-opacity:1;stroke:none;stroke-width:0.123659;stroke-linejoin:round;stroke-dasharray:none"
         id="rect6-1"
         width="1.0800536"
         height="31.859081"
         x="146.30908"
         y="44.808304" />
      <rect
         style="fill:#0000ff;fill-opacity:1;stroke:none;stroke-width:0.123659;stroke-linejoin:round;stroke-dasharray:none"
         id="rect6-6"
         width="1.0800536"
         height="31.859081"
         x="147.38913"
         y="44.808304" />
      <rect
         style="fill:#ff0000;fill-opacity:1;stroke:none;stroke-width:0.123659;stroke-linejoin:round;stroke-dasharray:none"
         id="rect6-7"
         width="1.0800536"
         height="31.859081"
         x="148.46916"
         y="44.808304" />
      <rect
         style="fill:#66ff00;fill-opacity:1;stroke:none;stroke-width:0.123659;stroke-linejoin:round;stroke-dasharray:none"
         id="rect6-1-7"
         width="1.0800536"
         height="31.859081"
         x="149.54922"
         y="44.808304" />
      <rect
         style="fill:#0000ff;fill-opacity:1;stroke:none;stroke-width:0.123659;stroke-linejoin:round;stroke-dasharray:none"
         id="rect6-6-1"
         width="1.0800536"
         height="31.859081"
         x="150.62927"
         y="44.808304" />
      <rect
         style="fill:#ff0000;fill-opacity:1;stroke:none;stroke-width:0.123659;stroke-linejoin:round;stroke-dasharray:none"
         id="rect6-76"
         width="1.0800536"
         height="31.859081"
         x="151.70932"
         y="44.808304" />
      <rect
         style="fill:#66ff00;fill-opacity:1;stroke:none;stroke-width:0.123659;stroke-linejoin:round;stroke-dasharray:none"
         id="rect6-1-73"
         width="1.0800536"
         height="31.859081"
         x="152.78937"
         y="44.808304" />
      <rect
         style="fill:#0000ff;fill-opacity:1;stroke:none;stroke-width:0.123659;stroke-linejoin:round;stroke-dasharray:none"
         id="rect6-6-6"
         width="1.0800536"
         height="31.859081"
         x="153.8694"
         y="44.808304" />
      <rect
         style="fill:#ff0000;fill-opacity:1;stroke:none;stroke-width:0.123659;stroke-linejoin:round;stroke-dasharray:none"
         id="rect6-7-5"
         width="1.0800536"
         height="31.859081"
         x="154.94946"
         y="44.808304" />
      <rect
         style="fill:#66ff00;fill-opacity:1;stroke:none;stroke-width:0.123659;stroke-linejoin:round;stroke-dasharray:none"
         id="rect6-1-7-6"
         width="1.0800536"
         height="31.859081"
         x="156.02951"
         y="44.808304" />
      <rect
         style="fill:#0000ff;fill-opacity:1;stroke:none;stroke-width:0.123659;stroke-linejoin:round;stroke-dasharray:none"
         id="rect6-6-1-3"
         width="1.0800536"
         height="31.859081"
         x="157.10954"
         y="44.808304" />
      <rect
         style="fill:#ff0000;fill-opacity:1;stroke:none;stroke-width:0.123659;stroke-linejoin:round;stroke-dasharray:none"
         id="rect6-2"
         width="1.0800536"
         height="31.859081"
         x="158.18961"
         y="44.808304" />
      <rect
         style="fill:#66ff00;fill-opacity:1;stroke:none;stroke-width:0.123659;stroke-linejoin:round;stroke-dasharray:none"
         id="rect6-1-9"
         width="1.0800536"
         height="31.859081"
         x="159.26964"
         y="44.808304" />
      <rect
         style="fill:#0000ff;fill-opacity:1;stroke:none;stroke-width:0.123659;stroke-linejoin:round;stroke-dasharray:none"
         id="rect6-6-3"
         width="1.0800536"
         height="31.859081"
         x="160.3497"
         y="44.808304" />
      <rect
         style="fill:#ff0000;fill-opacity:1;stroke:none;stroke-width:0.123659;stroke-linejoin:round;stroke-dasharray:none"
         id="rect6-7-9"
         width="1.0800536"
         height="31.859081"
         x="161.42973"
         y="44.808304" />
      <rect
         style="fill:#66ff00;fill-opacity:1;stroke:none;stroke-width:0.123659;stroke-linejoin:round;stroke-dasharray:none"
         id="rect6-1-7-0"
         width="1.0800536"
         height="31.859081"
         x="162.50978"
         y="44.808304" />
      <rect
         style="fill:#0000ff;fill-opacity:1;stroke:none;stroke-width:0.123659;stroke-linejoin:round;stroke-dasharray:none"
         id="rect6-6-1-8"
         width="1.0800536"
         height="31.859081"
         x="163.58984"
         y="44.808304" />
      <rect
         style="fill:#ff0000;fill-opacity:1;stroke:none;stroke-width:0.123659;stroke-linejoin:round;stroke-dasharray:none"
         id="rect6-63"
         width="1.0800536"
         height="31.859081"
         x="164.66989"
         y="44.808304" />
      <rect
         style="fill:#66ff00;fill-opacity:1;stroke:none;stroke-width:0.123659;stroke-linejoin:round;stroke-dasharray:none"
         id="rect6-1-8"
         width="1.0800536"
         height="31.859081"
         x="165.74992"
         y="44.808304" />
      <rect
         style="fill:#0000ff;fill-opacity:1;stroke:none;stroke-width:0.123659;stroke-linejoin:round;stroke-dasharray:none"
         id="rect6-6-5"
         width="1.0800536"
         height="31.859081"
         x="166.82999"
         y="44.808304" />
      <rect
         style="fill:#ff0000;fill-opacity:1;stroke:none;stroke-width:0.123659;stroke-linejoin:round;stroke-dasharray:none"
         id="rect6-7-6"
         width="1.0800536"
         height="31.859081"
         x="167.91002"
         y="44.808304" />
      <rect
         style="fill:#66ff00;fill-opacity:1;stroke:none;stroke-width:0.123659;stroke-linejoin:round;stroke-dasharray:none"
         id="rect6-1-7-1"
         width="1.0800536"
         height="31.859081"
         x="168.99008"
         y="44.808304" />
      <rect
         style="fill:#0000ff;fill-opacity:1;stroke:none;stroke-width:0.123659;stroke-linejoin:round;stroke-dasharray:none"
         id="rect6-6-1-1"
         width="1.0800536"
         height="31.859081"
         x="170.07013"
         y="44.808304" />
      <rect
         style="fill:#ff0000;fill-opacity:1;stroke:none;stroke-width:0.123659;stroke-linejoin:round;stroke-dasharray:none"
         id="rect6-8"
         width="1.0800536"
         height="31.859081"
         x="171.15018"
         y="44.808304" />
      <rect
         style="fill:#66ff00;fill-opacity:1;stroke:none;stroke-width:0.123659;stroke-linejoin:round;stroke-dasharray:none"
         id="rect6-1-1"
         width="1.0800536"
         height="31.859081"
         x="172.23024"
         y="44.808304" />
      <rect
         style="fill:#0000ff;fill-opacity:1;stroke:none;stroke-width:0.123659;stroke-linejoin:round;stroke-dasharray:none"
         id="rect6-6-0"
         width="1.0800536"
         height="31.859081"
         x="173.31027"
         y="44.808304" />
      <rect
         style="fill:#ff0000;fill-opacity:1;stroke:none;stroke-width:0.123659;stroke-linejoin:round;stroke-dasharray:none"
         id="rect6-7-3"
         width="1.0800536"
         height="31.859081"
         x="174.39034"
         y="44.808304" />
      <rect
         style="fill:#66ff00;fill-opacity:1;stroke:none;stroke-width:0.123659;stroke-linejoin:round;stroke-dasharray:none"
         id="rect6-1-7-04"
         width="1.0800536"
         height="31.859081"
         x="175.47038"
         y="44.808304" />
      <rect
         style="fill:#0000ff;fill-opacity:1;stroke:none;stroke-width:0.123659;stroke-linejoin:round;stroke-dasharray:none"
         id="rect6-6-1-4"
         width="1.0800536"
         height="31.859081"
         x="176.55042"
         y="44.808304" />
      <rect
         style="fill:#ff0000;fill-opacity:1;stroke:none;stroke-width:0.123659;stroke-linejoin:round;stroke-dasharray:none"
         id="rect6-3"
         width="1.0800536"
         height="31.859081"
         x="177.63048"
         y="44.8083" />
      <rect
         style="fill:#66ff00;fill-opacity:1;stroke:none;stroke-width:0.123659;stroke-linejoin:round;stroke-dasharray:none"
         id="rect6-1-17"
         width="1.0800536"
         height="31.859081"
         x="178.71051"
         y="44.8083" />
      <rect
         style="fill:#0000ff;fill-opacity:1;stroke:none;stroke-width:0.123659;stroke-linejoin:round;stroke-dasharray:none"
         id="rect6-6-59"
         width="1.0800536"
         height="31.859081"
         x="179.79056"
         y="44.8083" />
    </g>
    <rect
       style="fill:none;fill-opacity:1;stroke:#000000;stroke-width:0.123659;stroke-linejoin:round;stroke-dasharray:none"
       id="rect5"
       width="42.121891"
       height="31.859076"
       x="61.138245"
       y="131.63705" />
    <rect
       style="fill:#000000;fill-opacity:1;stroke:#000000;stroke-width:0.0540417;stroke-linejoin:round;stroke-dasharray:none"
       id="rect5-5"
       width="16.83935"
       height="14.901265"
       x="59.92062"
       y="90.902016" />
    <path
       id="rect7-2-9-6"
       style="fill:#005700;fill-opacity:1;stroke:none;stroke-width:0.117561;stroke-linejoin:round;stroke-dasharray:none"
       d="m 63.659261,90.881713 -1.42937,-0.0021 v 0.911572 c 0,0.378225 0.30442,0.682646 0.682645,0.682646 h 0.06408 c 0.378225,0 0.682646,-0.304421 0.682646,-0.682646 z" />
    <rect
       style="fill:#005700;fill-opacity:1;stroke:none;stroke-width:0.117561;stroke-linejoin:round;stroke-dasharray:none"
       id="rect7-1-8-8"
       width="1.4292525"
       height="3.1321948"
       x="62.23003"
       y="93.669312"
       ry="0.68271607" />
    <rect
       style="fill:#005700;fill-opacity:1;stroke:none;stroke-width:0.117561;stroke-linejoin:round;stroke-dasharray:none"
       id="rect7-34-7-9"
       width="1.4292525"
       height="3.1321948"
       x="62.23003"
       y="97.996887"
       ry="0.68271607" />
    <rect
       style="fill:#005700;fill-opacity:1;stroke:none;stroke-width:0.117561;stroke-linejoin:round;stroke-dasharray:none"
       id="rect7-9-2-0"
       width="1.4292525"
       height="3.1321948"
       x="62.23003"
       y="102.32446"
       ry="0.68271607" />
    <rect
       style="fill:#005700;fill-opacity:1;stroke:none;stroke-width:0.117561;stroke-linejoin:round;stroke-dasharray:none"
       id="rect7-2-9-0-4"
       width="1.4292525"
       height="3.1321948"
       x="67.708397"
       y="90.907837"
       ry="0.68271607" />
    <rect
       style="fill:#005700;fill-opacity:1;stroke:none;stroke-width:0.117561;stroke-linejoin:round;stroke-dasharray:none"
       id="rect7-1-8-4-8"
       width="1.4292525"
       height="3.1321948"
       x="67.708397"
       y="95.235413"
       ry="0.68271607" />
    <rect
       style="fill:#66ff4b;fill-opacity:1;stroke:none;stroke-width:0.117561;stroke-linejoin:round;stroke-dasharray:none"
       id="rect7-34-7-22-7"
       width="1.4292525"
       height="3.1321948"
       x="67.708397"
       y="99.562981"
       ry="0.68271607" />
    <path
       id="path13"
       style="fill:#005700;fill-opacity:1;stroke:none;stroke-width:0.117561;stroke-linejoin:round;stroke-dasharray:none"
       d="m 68.391272,103.89074 c -0.378225,0 -0.682646,0.30442 -0.682646,0.68264 v 1.22887 l 1.428853,0.002 v -1.23094 c 0,-0.37822 -0.304421,-0.68264 -0.682645,-0.68264 z" />
    <rect
       style="fill:#000080;fill-opacity:1;stroke:none;stroke-width:0.117561;stroke-linejoin:round;stroke-dasharray:none"
       id="rect7-2-9-0-4-5"
       width="1.4292525"
       height="3.1321948"
       x="69.534523"
       y="90.907837"
       ry="0.68271607" />
    <rect
       style="fill:#000080;fill-opacity:1;stroke:none;stroke-width:0.117561;stroke-linejoin:round;stroke-dasharray:none"
       id="rect7-1-8-4-8-2"
       width="1.4292525"
       height="3.1321948"
       x="69.534523"
       y="95.235413"
       ry="0.68271607" />
    <rect
       style="fill:#000080;fill-opacity:1;stroke:none;stroke-width:0.117561;stroke-linejoin:round;stroke-dasharray:none"
       id="rect7-34-7-22-7-4"
       width="1.4292525"
       height="3.1321948"
       x="69.534523"
       y="99.562981"
       ry="0.68271607" />
    <path
       id="path14"
       style="fill:#000080;fill-opacity:1;stroke:none;stroke-width:0.117561;stroke-linejoin:round;stroke-dasharray:none"
       d="m 70.217,103.89074 c -0.378225,0 -0.682646,0.30442 -0.682646,0.68264 v 1.23197 l 1.42937,0.002 v -1.23404 c 0,-0.37822 -0.304421,-0.68264 -0.682645,-0.68264 z" />
    <rect
       style="fill:#660000;fill-opacity:1;stroke:none;stroke-width:0.117561;stroke-linejoin:round;stroke-dasharray:none"
       id="rect7-2-9-0-4-1"
       width="1.4292525"
       height="3.1321948"
       x="65.882278"
       y="90.907837"
       ry="0.68271607" />
    <rect
       style="fill:#660000;fill-opacity:1;stroke:none;stroke-width:0.117561;stroke-linejoin:round;stroke-dasharray:none"
       id="rect7-1-8-4-8-8"
       width="1.4292525"
       height="3.1321948"
       x="65.882278"
       y="95.235413"
       ry="0.68271607" />
    <rect
       style="fill:#660000;fill-opacity:1;stroke:none;stroke-width:0.117561;stroke-linejoin:round;stroke-dasharray:none"
       id="rect7-34-7-22-7-3"
       width="1.4292525"
       height="3.1321948"
       x="65.882278"
       y="99.562981"
       ry="0.68271607" />
    <path
       id="path12"
       style="fill:#660000;fill-opacity:1;stroke:none;stroke-width:0.117561;stroke-linejoin:round;stroke-dasharray:none"
       d="m 66.565026,103.89074 c -0.378224,0 -0.682645,0.30442 -0.682645,0.68264 v 1.22732 l 1.42937,0.002 v -1.22939 c 0,-0.37822 -0.304938,-0.68264 -0.683163,-0.68264 z" />
    <path
       id="rect7-2-9-02-4"
       style="fill:#005700;fill-opacity:1;stroke:none;stroke-width:0.117561;stroke-linejoin:round;stroke-dasharray:none"
       d="m 74.616215,90.899283 -1.429371,-0.0021 v 0.894002 c 0,0.378225 0.304421,0.682646 0.682646,0.682646 h 0.06356 c 0.378225,0 0.683163,-0.304421 0.683163,-0.682646 z" />
    <rect
       style="fill:#005700;fill-opacity:1;stroke:none;stroke-width:0.117561;stroke-linejoin:round;stroke-dasharray:none"
       id="rect7-1-8-9-9"
       width="1.4292525"
       height="3.1321948"
       x="73.186768"
       y="93.669312"
       ry="0.68271607" />
    <rect
       style="fill:#005700;fill-opacity:1;stroke:none;stroke-width:0.117561;stroke-linejoin:round;stroke-dasharray:none"
       id="rect7-34-7-4-9"
       width="1.4292525"
       height="3.1321948"
       x="73.186768"
       y="97.996887"
       ry="0.68271607" />
    <rect
       style="fill:#005700;fill-opacity:1;stroke:none;stroke-width:0.117561;stroke-linejoin:round;stroke-dasharray:none"
       id="rect7-9-2-3-4"
       width="1.4292525"
       height="3.1321948"
       x="73.186768"
       y="102.32446"
       ry="0.68271607" />
    <path
       id="rect7-2-9-02-4-9"
       style="fill:#660000;fill-opacity:1;stroke:none;stroke-width:0.117561;stroke-linejoin:round;stroke-dasharray:none"
       d="m 72.789969,90.896182 -1.42937,-0.0021 v 0.897103 c 0,0.378225 0.304421,0.682646 0.682646,0.682646 h 0.06408 c 0.378224,0 0.682645,-0.304421 0.682645,-0.682646 z" />
    <rect
       style="fill:#660000;fill-opacity:1;stroke:none;stroke-width:0.117561;stroke-linejoin:round;stroke-dasharray:none"
       id="rect7-1-8-9-9-8"
       width="1.4292525"
       height="3.1321948"
       x="71.360641"
       y="93.669312"
       ry="0.68271607" />
    <rect
       style="fill:#660000;fill-opacity:1;stroke:none;stroke-width:0.117561;stroke-linejoin:round;stroke-dasharray:none"
       id="rect7-34-7-4-9-1"
       width="1.4292525"
       height="3.1321948"
       x="71.360641"
       y="97.996887"
       ry="0.68271607" />
    <rect
       style="fill:#660000;fill-opacity:1;stroke:none;stroke-width:0.117561;stroke-linejoin:round;stroke-dasharray:none"
       id="rect7-9-2-3-4-3"
       width="1.4292525"
       height="3.1321948"
       x="71.360641"
       y="102.32446"
       ry="0.68271607" />
    <path
       id="rect7-2-9-02-4-4"
       style="fill:#000080;fill-opacity:1;stroke:none;stroke-width:0.117561;stroke-linejoin:round;stroke-dasharray:none"
       d="m 76.441943,90.90135 -1.428853,-0.0021 v 0.891935 c 0,0.378225 0.304421,0.682646 0.682645,0.682646 h 0.06356 c 0.378225,0 0.682646,-0.304421 0.682646,-0.682646 z" />
    <rect
       style="fill:#000080;fill-opacity:1;stroke:none;stroke-width:0.117561;stroke-linejoin:round;stroke-dasharray:none"
       id="rect7-1-8-9-9-81"
       width="1.4292525"
       height="3.1321948"
       x="75.012886"
       y="93.669312"
       ry="0.68271607" />
    <rect
       style="fill:#000080;fill-opacity:1;stroke:none;stroke-width:0.117561;stroke-linejoin:round;stroke-dasharray:none"
       id="rect7-34-7-4-9-6"
       width="1.4292525"
       height="3.1321948"
       x="75.012886"
       y="97.996887"
       ry="0.68271607" />
    <rect
       style="fill:#000080;fill-opacity:1;stroke:none;stroke-width:0.117561;stroke-linejoin:round;stroke-dasharray:none"
       id="rect7-9-2-3-4-8"
       width="1.4292525"
       height="3.1321948"
       x="75.012886"
       y="102.32446"
       ry="0.68271607" />
    <path
       id="rect7-2-9-02-4-99"
       style="fill:#000080;fill-opacity:1;stroke:none;stroke-width:0.117561;stroke-linejoin:round;stroke-dasharray:none"
       d="m 65.485506,90.884814 -1.42937,-0.0026 v 0.908988 c 0,0.378225 0.304421,0.682646 0.682645,0.682646 h 0.06408 c 0.378225,0 0.682646,-0.304421 0.682646,-0.682646 z" />
    <rect
       style="fill:#000080;fill-opacity:1;stroke:none;stroke-width:0.117561;stroke-linejoin:round;stroke-dasharray:none"
       id="rect7-1-8-9-9-0"
       width="1.4292525"
       height="3.1321948"
       x="64.056152"
       y="93.669312"
       ry="0.68271607" />
    <rect
       style="fill:#000080;fill-opacity:1;stroke:none;stroke-width:0.117561;stroke-linejoin:round;stroke-dasharray:none"
       id="rect7-34-7-4-9-8"
       width="1.4292525"
       height="3.1321948"
       x="64.056152"
       y="97.996887"
       ry="0.68271607" />
    <rect
       style="fill:#000080;fill-opacity:1;stroke:none;stroke-width:0.117561;stroke-linejoin:round;stroke-dasharray:none"
       id="rect7-9-2-3-4-9"
       width="1.4292525"
       height="3.1321948"
       x="64.056152"
       y="102.32446"
       ry="0.68271607" />
    <rect
       style="fill:#66ff00;fill-opacity:1;stroke-width:1.36347;stroke-linejoin:round"
       id="rect1"
       width="4.4622135"
       height="2.2244523"
       x="-122.55243"
       y="106.89166"
       transform="rotate(-90)" />
    <rect
       style="fill:#ff0000;fill-opacity:1;stroke-width:1.36347;stroke-linejoin:round"
       id="rect1-3"
       width="4.4622135"
       height="2.2244523"
       x="-118.09023"
       y="106.89166"
       transform="rotate(-90)" />
    <rect
       style="fill:#000066;fill-opacity:1;stroke-width:1.36347;stroke-linejoin:round"
       id="rect1-3-1"
       width="4.4622135"
       height="2.2244523"
       x="-113.62799"
       y="106.89166"
       transform="rotate(-90)" />
    <rect
       style="fill:#006600;fill-opacity:1;stroke-width:1.36347;stroke-linejoin:round"
       id="rect1-4"
       width="4.4622135"
       height="2.2244523"
       x="-109.16579"
       y="106.89166"
       transform="rotate(-90)" />
    <rect
       style="fill:#660000;fill-opacity:1;stroke-width:1.36347;stroke-linejoin:round"
       id="rect1-3-0"
       width="4.4622135"
       height="2.2244523"
       x="-104.70358"
       y="106.89166"
       transform="rotate(-90)" />
    <rect
       style="fill:#000066;fill-opacity:1;stroke-width:1.36347;stroke-linejoin:round"
       id="rect1-3-1-0"
       width="4.4622135"
       height="2.2244523"
       x="-100.24138"
       y="106.89166"
       transform="rotate(-90)" />
    <path
       id="rect7-2-9-02-4-2"
       style="fill:#660000;fill-opacity:1;stroke:none;stroke-width:0.117561;stroke-linejoin:round;stroke-dasharray:none"
       d="m 61.833016,90.879129 -1.428854,-0.0026 v 0.914673 c 0,0.378225 0.304421,0.682646 0.682646,0.682646 h 0.06356 c 0.378225,0 0.682646,-0.304421 0.682646,-0.682646 z" />
    <rect
       style="fill:#660000;fill-opacity:1;stroke:none;stroke-width:0.117561;stroke-linejoin:round;stroke-dasharray:none"
       id="rect7-1-8-9-9-2"
       width="1.4292525"
       height="3.1321948"
       x="60.403908"
       y="93.669312"
       ry="0.68271607" />
    <rect
       style="fill:#660000;fill-opacity:1;stroke:none;stroke-width:0.117561;stroke-linejoin:round;stroke-dasharray:none"
       id="rect7-34-7-4-9-15"
       width="1.4292525"
       height="3.1321948"
       x="60.403908"
       y="97.996887"
       ry="0.68271607" />
    <rect
       style="fill:#660000;fill-opacity:1;stroke:none;stroke-width:0.117561;stroke-linejoin:round;stroke-dasharray:none"
       id="rect7-9-2-3-4-0"
       width="1.4292525"
       height="3.1321948"
       x="60.403908"
       y="102.32446"
       ry="0.68271607" />
    <path
       id="rect7-34-7-9-2"
       style="fill:#66ff4b;fill-opacity:1;stroke:none;stroke-width:0.117561;stroke-linejoin:round;stroke-dasharray:none"
       d="m 62.912557,97.997189 c -0.04962,0 -0.09762,0.005 -0.144178,0.015 a 3.9734988,3.9734988 0 0 0 -0.298689,1.5105 3.9734988,3.9734988 0 0 0 0.335896,1.598351 c 0.03487,0.005 0.07053,0.008 0.106971,0.008 h 0.06408 c 0.378225,0 0.682646,-0.30442 0.682646,-0.68265 v -1.766811 c 0,-0.37823 -0.304421,-0.68265 -0.682646,-0.68265 z" />
    <path
       id="rect7-1-8-4-8-5"
       style="fill:#66ff4b;fill-opacity:1;stroke:none;stroke-width:0.117561;stroke-linejoin:round;stroke-dasharray:none"
       d="m 67.726487,95.761525 c -0.01169,0.0502 -0.01809,0.1027 -0.01809,0.15658 v 1.76681 c 0,0.37823 0.304937,0.68265 0.683162,0.68265 h 0.06356 c 0.378225,0 0.682646,-0.30442 0.682646,-0.68265 v -1.08313 a 3.9734988,3.9734988 0 0 0 -1.411284,-0.84026 z" />
    <circle
       style="fill:none;fill-opacity:1;stroke:#ffffff;stroke-width:0.1;stroke-linejoin:round;stroke-dasharray:none;stroke-opacity:1"
       id="path10"
       cx="66.443504"
       cy="99.522377"
       r="3.9734988" />
    <ellipse
       style="fill:#660000;fill-opacity:1;stroke:none;stroke-width:0.662062;stroke-linejoin:round"
       id="path1"
       cx="84.827179"
       cy="91.410049"
       rx="1.1439706"
       ry="1.1226143" />
    <ellipse
       style="fill:#660000;fill-opacity:1;stroke:none;stroke-width:0.662062;stroke-linejoin:round"
       id="path1-2"
       cx="84.827179"
       cy="97.55632"
       rx="1.1439706"
       ry="1.1226143" />
    <ellipse
       style="fill:#005700;fill-opacity:1;stroke:none;stroke-width:0.662062;stroke-linejoin:round"
       id="path1-7"
       cx="88.009171"
       cy="91.410049"
       rx="1.1439706"
       ry="1.1226143" />
    <ellipse
       style="fill:#000080;fill-opacity:1;stroke:none;stroke-width:0.662062;stroke-linejoin:round"
       id="path1-0-7"
       cx="86.397278"
       cy="94.494881"
       rx="1.1439706"
       ry="1.1226143" />
    <path
       id="path1-2-6"
       style="fill:#005700;fill-opacity:1;stroke:none;stroke-width:0.662062;stroke-linejoin:round"
       d="m 88.173527,96.445198 a 1.1439706,1.1226143 0 0 0 -0.164331,-0.01137 1.1439706,1.1226143 0 0 0 -1.144117,1.122412 1.1439706,1.1226143 0 0 0 1.144117,1.122929 1.1439706,1.1226143 0 0 0 0.618566,-0.178284 3.66307,3.66307 0 0 1 -0.464054,-1.784904 3.66307,3.66307 0 0 1 0.0098,-0.270784 z" />
    <path
       id="path11"
       style="fill:#66ff4b;fill-opacity:1;stroke:none;stroke-width:0.662062;stroke-linejoin:round"
       d="m 88.173527,96.445198 a 3.66307,3.66307 0 0 0 -0.0098,0.270784 3.66307,3.66307 0 0 0 0.464054,1.784904 1.1439706,1.1226143 0 0 0 0.52555,-0.944645 1.1439706,1.1226143 0 0 0 -0.979785,-1.111043 z" />
    <ellipse
       style="fill:#000080;fill-opacity:1;stroke:none;stroke-width:0.662062;stroke-linejoin:round"
       id="path1-9"
       cx="91.191154"
       cy="91.410049"
       rx="1.1439706"
       ry="1.1226143" />
    <ellipse
       style="fill:#005700;fill-opacity:1;stroke:none;stroke-width:0.662062;stroke-linejoin:round"
       id="path1-0-8"
       cx="89.579262"
       cy="94.494881"
       rx="1.1439706"
       ry="1.1226143" />
    <ellipse
       style="fill:#660000;fill-opacity:1;stroke:none;stroke-width:0.662062;stroke-linejoin:round"
       id="path1-0-8-4"
       cx="89.579262"
       cy="94.494881"
       rx="1.1439706"
       ry="1.1226143" />
    <ellipse
       style="fill:#000080;fill-opacity:1;stroke:none;stroke-width:0.662062;stroke-linejoin:round"
       id="path1-2-8"
       cx="91.191154"
       cy="97.55632"
       rx="1.1439706"
       ry="1.1226143" />
    <ellipse
       style="fill:#660000;fill-opacity:1;stroke:none;stroke-width:0.662062;stroke-linejoin:round"
       id="path1-21"
       cx="94.373138"
       cy="91.410049"
       rx="1.1439706"
       ry="1.1226143" />
    <ellipse
       style="fill:#66ff4b;fill-opacity:1;stroke:none;stroke-width:0.662062;stroke-linejoin:round"
       id="path1-0-77"
       cx="92.761246"
       cy="94.494881"
       rx="1.1439706"
       ry="1.1226143" />
    <ellipse
       style="fill:#660000;fill-opacity:1;stroke:none;stroke-width:0.662062;stroke-linejoin:round"
       id="path1-2-9"
       cx="94.373138"
       cy="97.55632"
       rx="1.1439706"
       ry="1.1226143" />
    <ellipse
       style="fill:#005700;fill-opacity:1;stroke:none;stroke-width:0.662062;stroke-linejoin:round"
       id="path1-88"
       cx="97.55513"
       cy="91.410049"
       rx="1.1439706"
       ry="1.1226143" />
    <ellipse
       style="fill:#000080;fill-opacity:1;stroke:none;stroke-width:0.662062;stroke-linejoin:round"
       id="path1-0-4"
       cx="95.943237"
       cy="94.494881"
       rx="1.1439706"
       ry="1.1226143" />
    <ellipse
       style="fill:#005700;fill-opacity:1;stroke:none;stroke-width:0.662062;stroke-linejoin:round"
       id="path1-2-5"
       cx="97.55513"
       cy="97.55632"
       rx="1.1439706"
       ry="1.1226143" />
    <ellipse
       style="fill:#000080;fill-opacity:1;stroke:none;stroke-width:0.662062;stroke-linejoin:round"
       id="path1-5-9"
       cx="86.397278"
       cy="100.64116"
       rx="1.1439706"
       ry="1.1226143" />
    <ellipse
       style="fill:#660000;fill-opacity:1;stroke:none;stroke-width:0.662062;stroke-linejoin:round"
       id="path1-5-0"
       cx="89.579262"
       cy="100.64116"
       rx="1.1439706"
       ry="1.1226143" />
    <path
       id="path1-5-7"
       style="fill:#005700;fill-opacity:1;stroke:none;stroke-width:0.662062;stroke-linejoin:round"
       d="m 91.6498,100.37467 a 1.1439706,1.1226143 0 0 0 -0.03256,0.26665 1.1439706,1.1226143 0 0 0 1.144116,1.12242 1.1439706,1.1226143 0 0 0 1.1436,-1.12242 1.1439706,1.1226143 0 0 0 -0.278536,-0.734835 3.66307,3.66307 0 0 1 -1.79989,0.472325 3.66307,3.66307 0 0 1 -0.176734,-0.004 z" />
    <path
       id="path15"
       style="fill:#66ff4b;fill-opacity:1;stroke:none;stroke-width:0.662062;stroke-linejoin:round"
       d="m 91.6498,100.37467 a 3.66307,3.66307 0 0 0 0.176734,0.004 3.66307,3.66307 0 0 0 1.79989,-0.472325 1.1439706,1.1226143 0 0 0 -0.865064,-0.38809 1.1439706,1.1226143 0 0 0 -1.11156,0.856275 z" />
    <ellipse
       style="fill:#000080;fill-opacity:1;stroke:none;stroke-width:0.662062;stroke-linejoin:round"
       id="path1-5-6"
       cx="95.943237"
       cy="100.64116"
       rx="1.1439706"
       ry="1.1226143" />
    <circle
       style="fill:none;fill-opacity:1;stroke:#ffffff;stroke-width:0.0921875;stroke-linejoin:round;stroke-dasharray:none;stroke-opacity:1"
       id="path10-2"
       cx="91.82653"
       cy="96.715965"
       r="3.66307" />
  </g>
</svg>
