<?xml version="1.0" encoding="UTF-8" standalone="no"?>
<!-- Created with Inkscape (http://www.inkscape.org/) -->

<svg
   xmlns:dc="http://purl.org/dc/elements/1.1/"
   xmlns:cc="http://creativecommons.org/ns#"
   xmlns:rdf="http://www.w3.org/1999/02/22-rdf-syntax-ns#"
   xmlns:svg="http://www.w3.org/2000/svg"
   xmlns="http://www.w3.org/2000/svg"
   xmlns:sodipodi="http://sodipodi.sourceforge.net/DTD/sodipodi-0.dtd"
   xmlns:inkscape="http://www.inkscape.org/namespaces/inkscape"
   version="1.1"
   id="svg2"
   xml:space="preserve"
   width="398.66666"
   height="489.33334"
   viewBox="0 0 398.66666 489.33334"
   sodipodi:docname="ega.svg"
   inkscape:version="0.92.3 (2405546, 2018-03-11)"><metadata
     id="metadata8"><rdf:RDF><cc:Work
         rdf:about=""><dc:format>image/svg+xml</dc:format><dc:type
           rdf:resource="http://purl.org/dc/dcmitype/StillImage" /><dc:title></dc:title></cc:Work></rdf:RDF></metadata><defs
     id="defs6" /><sodipodi:namedview
     pagecolor="#ffffff"
     bordercolor="#666666"
     borderopacity="1"
     objecttolerance="10"
     gridtolerance="10"
     guidetolerance="10"
     inkscape:pageopacity="0"
     inkscape:pageshadow="2"
     inkscape:window-width="1920"
     inkscape:window-height="1012"
     id="namedview4"
     showgrid="false"
     inkscape:zoom="1.3641188"
     inkscape:cx="97.872632"
     inkscape:cy="298.63776"
     inkscape:window-x="0"
     inkscape:window-y="0"
     inkscape:window-maximized="1"
     inkscape:current-layer="g10" /><g
     id="g10"
     inkscape:groupmode="layer"
     inkscape:label="ink_ext_XXXXXX"
     transform="matrix(1.3333333,0,0,-1.3333333,0,489.33333)"><path
       inkscape:connector-curvature="0"
       id="path14"
       style="fill:none;stroke:#000000;stroke-width:1.59404004;stroke-linecap:butt;stroke-linejoin:miter;stroke-miterlimit:10;stroke-dasharray:none;stroke-opacity:1"
       d="M 22.2699,353.844 H 164.004" /><path
       inkscape:connector-curvature="0"
       id="path16"
       style="fill:#bfbfbf;fill-opacity:1;fill-rule:nonzero;stroke:none;stroke-width:0.1"
       d="m 23.3551,322.039 v -18.961 c 0,-2.199 1.7859,-3.984 3.9847,-3.984 H 161.105 c 2.2,0 3.985,1.785 3.985,3.984 v 18.961 c 0,2.199 -1.785,3.984 -3.985,3.984 H 27.3398 c -2.1988,0 -3.9847,-1.785 -3.9847,-3.984 z" /><path
       inkscape:connector-curvature="0"
       id="path18"
       style="fill:none;stroke:#000000;stroke-width:0.79701;stroke-linecap:butt;stroke-linejoin:miter;stroke-miterlimit:10;stroke-dasharray:none;stroke-opacity:1"
       d="m 23.3551,322.039 v -18.961 c 0,-2.199 1.7859,-3.984 3.9847,-3.984 H 161.105 c 2.2,0 3.985,1.785 3.985,3.984 v 18.961 c 0,2.199 -1.785,3.984 -3.985,3.984 H 27.3398 c -2.1988,0 -3.9847,-1.785 -3.9847,-3.984 z" /><path
       inkscape:connector-curvature="0"
       id="path20"
       style="fill:#bfbfbf;fill-opacity:1;fill-rule:nonzero;stroke:none;stroke-width:0.1"
       d="m 23.3551,283.77 v -18.958 c 0,-2.203 1.7859,-3.984 3.9847,-3.984 H 161.105 c 2.2,0 3.985,1.781 3.985,3.984 v 18.958 c 0,2.203 -1.785,3.984 -3.985,3.984 H 27.3398 c -2.1988,0 -3.9847,-1.781 -3.9847,-3.984 z" /><path
       inkscape:connector-curvature="0"
       id="path22"
       style="fill:none;stroke:#000000;stroke-width:0.79701;stroke-linecap:butt;stroke-linejoin:miter;stroke-miterlimit:10;stroke-dasharray:none;stroke-opacity:1"
       d="m 23.3551,283.77 v -18.958 c 0,-2.203 1.7859,-3.984 3.9847,-3.984 H 161.105 c 2.2,0 3.985,1.781 3.985,3.984 v 18.958 c 0,2.203 -1.785,3.984 -3.985,3.984 H 27.3398 c -2.1988,0 -3.9847,-1.781 -3.9847,-3.984 z" /><path
       inkscape:connector-curvature="0"
       id="path24"
       style="fill:#bfbfbf;fill-opacity:1;fill-rule:nonzero;stroke:none;stroke-width:0.1"
       d="m 23.3551,131.847 h 28.348 v 99.2152 h -28.348 z" /><path
       inkscape:connector-curvature="0"
       id="path26"
       style="fill:none;stroke:#000000;stroke-width:0.79701;stroke-linecap:butt;stroke-linejoin:miter;stroke-miterlimit:10;stroke-dasharray:none;stroke-opacity:1"
       d="m 23.3551,131.847 h 28.348 v 99.2152 h -28.348 z" /><path
       inkscape:connector-curvature="0"
       id="path28"
       style="fill:#bfbfbf;fill-opacity:1;fill-rule:nonzero;stroke:none;stroke-width:0.1"
       d="m 60.207,131.847 h 28.348 v 99.2152 H 60.207 Z" /><path
       inkscape:connector-curvature="0"
       id="path30"
       style="fill:none;stroke:#000000;stroke-width:0.79701;stroke-linecap:butt;stroke-linejoin:miter;stroke-miterlimit:10;stroke-dasharray:none;stroke-opacity:1"
       d="m 60.207,131.847 h 28.348 v 99.2152 H 60.207 Z" /><path
       inkscape:connector-curvature="0"
       id="path32"
       style="fill:#bfbfbf;fill-opacity:1;fill-rule:nonzero;stroke:none;stroke-width:0.1"
       d="m 97.059,131.847 h 28.3441 v 99.2152 H 97.059 Z" /><path
       inkscape:connector-curvature="0"
       id="path34"
       style="fill:none;stroke:#000000;stroke-width:0.79701;stroke-linecap:butt;stroke-linejoin:miter;stroke-miterlimit:10;stroke-dasharray:none;stroke-opacity:1"
       d="m 97.059,131.847 h 28.3441 v 99.2152 H 97.059 Z" /><path
       inkscape:connector-curvature="0"
       id="path36"
       style="fill:#bfbfbf;fill-opacity:1;fill-rule:nonzero;stroke:none;stroke-width:0.1"
       d="m 133.906,131.847 h 31.184 v 99.2152 h -31.184 z" /><path
       inkscape:connector-curvature="0"
       id="path38"
       style="fill:none;stroke:#000000;stroke-width:0.79701;stroke-linecap:butt;stroke-linejoin:miter;stroke-miterlimit:10;stroke-dasharray:none;stroke-opacity:1"
       d="m 133.906,131.847 h 31.184 v 99.2152 h -31.184 z" /><path
       inkscape:connector-curvature="0"
       id="path40"
       style="fill:#bfbfbf;fill-opacity:1;fill-rule:nonzero;stroke:none;stroke-width:0.1"
       d="M 23.3551,99.516 V 79.141 c 0,-2.2031 1.7859,-3.9851 3.9847,-3.9851 H 161.105 c 2.2,0 3.985,1.782 3.985,3.9851 v 20.375 c 0,2.203 -1.785,3.984 -3.985,3.984 H 27.3398 c -2.1988,0 -3.9847,-1.781 -3.9847,-3.984 z" /><path
       inkscape:connector-curvature="0"
       id="path42"
       style="fill:none;stroke:#000000;stroke-width:0.79701;stroke-linecap:butt;stroke-linejoin:miter;stroke-miterlimit:10;stroke-dasharray:none;stroke-opacity:1"
       d="M 23.3551,99.516 V 79.141 c 0,-2.2031 1.7859,-3.9851 3.9847,-3.9851 H 161.105 c 2.2,0 3.985,1.782 3.985,3.9851 v 20.375 c 0,2.203 -1.785,3.984 -3.985,3.984 H 27.3398 c -2.1988,0 -3.9847,-1.781 -3.9847,-3.984 z" /><path
       inkscape:connector-curvature="0"
       id="path44"
       style="fill:#bfbfbf;fill-opacity:1;fill-rule:nonzero;stroke:none;stroke-width:0.1"
       d="m 23.3551,36.6211 v 20.375 c 0,2.1988 1.7859,3.984 3.9847,3.984 H 161.105 c 2.2,0 3.985,-1.7852 3.985,-3.984 v -20.375 c 0,-2.2031 -1.785,-3.9879 -3.985,-3.9879 H 27.3398 c -2.1988,0 -3.9847,1.7848 -3.9847,3.9879 z" /><path
       inkscape:connector-curvature="0"
       id="path46"
       style="fill:none;stroke:#000000;stroke-width:0.79701;stroke-linecap:butt;stroke-linejoin:miter;stroke-miterlimit:10;stroke-dasharray:none;stroke-opacity:1"
       d="m 23.3551,36.6211 v 20.375 c 0,2.1988 1.7859,3.984 3.9847,3.984 H 161.105 c 2.2,0 3.985,-1.7852 3.985,-3.984 v -20.375 c 0,-2.2031 -1.785,-3.9879 -3.985,-3.9879 H 27.3398 c -2.1988,0 -3.9847,1.7848 -3.9847,3.9879 z" /><path
       inkscape:connector-curvature="0"
       id="path48"
       style="fill:none;stroke:#000000;stroke-width:1.59404004;stroke-linecap:butt;stroke-linejoin:miter;stroke-miterlimit:10;stroke-dasharray:none;stroke-opacity:1"
       d="M 94.582,353.484 94.223,326.023" /><path
       inkscape:connector-curvature="0"
       id="path50"
       style="fill:none;stroke:#000000;stroke-width:1.59404004;stroke-linecap:butt;stroke-linejoin:miter;stroke-miterlimit:10;stroke-dasharray:none;stroke-opacity:1"
       d="m 94.223,299.094 v -11.34" /><path
       inkscape:connector-curvature="0"
       id="path52"
       style="fill:none;stroke:#000000;stroke-width:1.59404004;stroke-linecap:butt;stroke-linejoin:miter;stroke-miterlimit:10;stroke-dasharray:none;stroke-opacity:1"
       d="m 94.223,245.234 v 15.594" /><path
       inkscape:connector-curvature="0"
       id="path54"
       style="fill:none;stroke:#000000;stroke-width:1.59404004;stroke-linecap:butt;stroke-linejoin:miter;stroke-miterlimit:10;stroke-dasharray:none;stroke-opacity:1"
       d="M 37.527,245.234 H 150.918" /><path
       inkscape:connector-curvature="0"
       id="path56"
       style="fill:none;stroke:#000000;stroke-width:1.59404004;stroke-linecap:butt;stroke-linejoin:miter;stroke-miterlimit:10;stroke-dasharray:none;stroke-opacity:1"
       d="M 37.527,245.234 V 231.062" /><path
       inkscape:connector-curvature="0"
       id="path58"
       style="fill:none;stroke:#000000;stroke-width:1.59404004;stroke-linecap:butt;stroke-linejoin:miter;stroke-miterlimit:10;stroke-dasharray:none;stroke-opacity:1"
       d="M 74.3789,245.234 V 231.062" /><path
       inkscape:connector-curvature="0"
       id="path60"
       style="fill:none;stroke:#000000;stroke-width:1.59404004;stroke-linecap:butt;stroke-linejoin:miter;stroke-miterlimit:10;stroke-dasharray:none;stroke-opacity:1"
       d="M 111.23,245.234 V 231.062" /><path
       inkscape:connector-curvature="0"
       id="path62"
       style="fill:none;stroke:#000000;stroke-width:1.59404004;stroke-linecap:butt;stroke-linejoin:miter;stroke-miterlimit:10;stroke-dasharray:none;stroke-opacity:1"
       d="M 150.918,245.234 V 231.062" /><path
       inkscape:connector-curvature="0"
       id="path64"
       style="fill:none;stroke:#000000;stroke-width:1.59404004;stroke-linecap:butt;stroke-linejoin:miter;stroke-miterlimit:10;stroke-dasharray:none;stroke-opacity:1"
       d="M 37.527,131.848 V 103.5" /><path
       inkscape:connector-curvature="0"
       id="path66"
       style="fill:none;stroke:#000000;stroke-width:1.59404004;stroke-linecap:butt;stroke-linejoin:miter;stroke-miterlimit:10;stroke-dasharray:none;stroke-opacity:1"
       d="M 74.3789,131.848 V 103.5" /><path
       inkscape:connector-curvature="0"
       id="path68"
       style="fill:none;stroke:#000000;stroke-width:1.59404004;stroke-linecap:butt;stroke-linejoin:miter;stroke-miterlimit:10;stroke-dasharray:none;stroke-opacity:1"
       d="M 111.23,131.848 V 103.5" /><path
       inkscape:connector-curvature="0"
       id="path70"
       style="fill:none;stroke:#000000;stroke-width:1.59404004;stroke-linecap:butt;stroke-linejoin:miter;stroke-miterlimit:10;stroke-dasharray:none;stroke-opacity:1"
       d="M 150.918,131.848 V 103.5" /><path
       inkscape:connector-curvature="0"
       id="path72"
       style="fill:none;stroke:#000000;stroke-width:1.59404004;stroke-linecap:butt;stroke-linejoin:miter;stroke-miterlimit:10;stroke-dasharray:none;stroke-opacity:1"
       d="M 94.223,75.1559 V 60.9801" /><path
       inkscape:connector-curvature="0"
       id="path74"
       style="fill:none;stroke:#000000;stroke-width:0.3985;stroke-linecap:butt;stroke-linejoin:miter;stroke-miterlimit:10;stroke-dasharray:0.3985, 1.99255;stroke-dashoffset:0;stroke-opacity:1"
       d="M 1.90586,336.422 H 285.375" /><path
       inkscape:connector-curvature="0"
       id="path76"
       style="fill:none;stroke:#000000;stroke-width:0.3985;stroke-linecap:butt;stroke-linejoin:miter;stroke-miterlimit:10;stroke-dasharray:0.3985, 1.99255;stroke-dashoffset:0;stroke-opacity:1"
       d="M 0,236.707 H 283.469" /><path
       inkscape:connector-curvature="0"
       id="path78"
       style="fill:none;stroke:#000000;stroke-width:0.3985;stroke-linecap:butt;stroke-linejoin:miter;stroke-miterlimit:10;stroke-dasharray:0.3985, 1.99255;stroke-dashoffset:0;stroke-opacity:1"
       d="M 0.476953,111.824 H 283.945" /><g
       id="g92"><text
         id="text96"
         style="font-variant:normal;font-weight:normal;font-size:12.80000019px;font-family:'DejaVu Sans';-inkscape-font-specification:DejaVuSans;writing-mode:lr-tb;fill:#000000;fill-opacity:1;fill-rule:nonzero;stroke:none"
         transform="matrix(1,0,0,-1,61.7621,0.894531)"><tspan
           id="tspan94"
           sodipodi:role="line"
           y="0"
           x="0 5.6575232 13.491123 17.561523 28.607924 36.441525 44.556725 48.115124 53.132725 60.966324">To Monitor</tspan></text>
</g><path
       inkscape:connector-curvature="0"
       id="path98"
       style="fill:none;stroke:#000000;stroke-width:1.60000002;stroke-linecap:butt;stroke-linejoin:miter;stroke-miterlimit:4;stroke-dasharray:none;stroke-opacity:1"
       d="M 95.4059,33.152 V 15.8051" /><path
       inkscape:connector-curvature="0"
       id="path100"
       style="fill:#000000;fill-opacity:1;fill-rule:evenodd;stroke:none;stroke-width:0.1"
       d="m 95.4059,12.1129 -3.2028,5.5351 h 6.402 z" /><path
       inkscape:connector-curvature="0"
       id="path102"
       style="fill:none;stroke:#000000;stroke-width:0.80000001;stroke-linecap:butt;stroke-linejoin:miter;stroke-miterlimit:4;stroke-dasharray:none;stroke-opacity:1"
       d="m 95.4059,12.1129 -3.2028,5.5351 h 6.402 z" /><text
       transform="scale(0.95469367,-1.0474564)"
       style="font-variant:normal;font-weight:normal;font-size:10.88264847px;font-family:'DejaVu Sans';-inkscape-font-specification:DejaVuSans;writing-mode:lr-tb;fill:#000000;fill-opacity:1;fill-rule:nonzero;stroke:none;stroke-width:0.95469368"
       id="text112"
       x="142.77983"
       y="-172.49501"><tspan
         x="142.77983 149.70119 156.62256 162.92361"
         y="-172.49501"
         sodipodi:role="line"
         id="tspan110"
         style="stroke-width:0.95469368">64kB</tspan></text>
<text
       transform="scale(1,-1)"
       style="font-variant:normal;font-weight:normal;font-size:12.80000019px;font-family:'DejaVu Sans';-inkscape-font-specification:DejaVuSans;writing-mode:lr-tb;fill:#000000;fill-opacity:1;fill-rule:nonzero;stroke:none"
       id="text122"
       x="30.7145"
       y="-269.147"><tspan
         x="30.7145 38.842499 46.7145 54.842499 62.957699 70.829697 78.944901 86.087242 93.959244 98.029648 106.96404 114.79765 122.91284 127.93044 132.89671 140.73032 144.28871 147.84711 155.71912"
         y="-269.147"
         sodipodi:role="line"
         id="tspan114">Sequence Controller</tspan><tspan
         x="38.303951 48.223949 53.484749 61.33115 69.459152 77.676689 81.235092 88.275093 92.34549 101.27989 109.11349 117.22869 122.28458 127.27663 135.11021 138.66861 142.22702 150.09901"
         y="-308.90131"
         sodipodi:role="line"
         id="tspan116">Graphic Controller</tspan><tspan
         x="69.384445 78.165245 86.280449 92.949249 97.019653 102.03725 109.87085 114.0307 122.9651 130.6835"
         y="-356.60599"
         sodipodi:role="line"
         id="tspan118">Bus to CPU</tspan><tspan
         x="77.116089 86.050491 93.884087 101.99929 107.01689 112.04722 119.88082 123.43922 126.99762 134.86961"
         y="-85.895004"
         sodipodi:role="line"
         id="tspan120">Controller</tspan></text>
<text
       transform="scale(0.95469367,-1.0474564)"
       style="font-variant:normal;font-weight:normal;font-size:10.88264847px;font-family:'DejaVu Sans';-inkscape-font-specification:DejaVuSans;writing-mode:lr-tb;fill:#000000;fill-opacity:1;fill-rule:nonzero;stroke:none;stroke-width:0.95469368"
       id="text126"
       x="25.496975"
       y="-172.49501"><tspan
         x="25.496975 32.418339 39.339703 45.640755 102.6876 109.60896 116.53033 122.83138 64.099823 71.021187 77.942551 84.243607"
         y="-172.49501"
         sodipodi:role="line"
         id="tspan124"
         style="stroke-width:0.95469368">64kB64kB64kB</tspan></text>
<text
       transform="scale(1,-1)"
       style="font-variant:normal;font-weight:normal;font-size:12.80000019px;font-family:'DejaVu Sans';-inkscape-font-specification:DejaVuSans;writing-mode:lr-tb;fill:#000000;fill-opacity:1;fill-rule:nonzero;stroke:none"
       id="text132"
       x="32.366402"
       y="-42.034801"><tspan
         x="32.366402 40.891132 45.90873 50.926331 56.18713 59.745533 67.873528 75.988731 81.044609 88.916611 92.987015 101.92142 109.75501 117.87022 122.88782 127.91814 135.75175 139.31013 142.86853 150.74055"
         y="-42.034801"
         sodipodi:role="line"
         id="tspan128">Attribute Controller</tspan><tspan
         x="46.343399 55.277802 63.264816"
         y="-85.535599"
         sodipodi:role="line"
         id="tspan130">CRT</tspan></text>
</g></svg>