<?xml version="1.0" encoding="UTF-8" standalone="no"?>
<!-- Created with Inkscape (http://www.inkscape.org/) -->

<svg
   xmlns:dc="http://purl.org/dc/elements/1.1/"
   xmlns:cc="http://creativecommons.org/ns#"
   xmlns:rdf="http://www.w3.org/1999/02/22-rdf-syntax-ns#"
   xmlns:svg="http://www.w3.org/2000/svg"
   xmlns="http://www.w3.org/2000/svg"
   xmlns:sodipodi="http://sodipodi.sourceforge.net/DTD/sodipodi-0.dtd"
   xmlns:inkscape="http://www.inkscape.org/namespaces/inkscape"
   version="1.1"
   id="svg2"
   xml:space="preserve"
   width="810.66669"
   height="1093.3333"
   viewBox="0 0 810.66669 1093.3333"
   sodipodi:docname="ega_ram_screen_layout.svg"
   inkscape:version="0.92.3 (2405546, 2018-03-11)"><metadata
     id="metadata8"><rdf:RDF><cc:Work
         rdf:about=""><dc:format>image/svg+xml</dc:format><dc:type
           rdf:resource="http://purl.org/dc/dcmitype/StillImage" /><dc:title></dc:title></cc:Work></rdf:RDF></metadata><defs
     id="defs6" /><sodipodi:namedview
     pagecolor="#ffffff"
     bordercolor="#666666"
     borderopacity="1"
     objecttolerance="10"
     gridtolerance="10"
     guidetolerance="10"
     inkscape:pageopacity="0"
     inkscape:pageshadow="2"
     inkscape:window-width="1920"
     inkscape:window-height="1012"
     id="namedview4"
     showgrid="false"
     inkscape:zoom="0.8634147"
     inkscape:cx="374.61075"
     inkscape:cy="730.52212"
     inkscape:window-x="0"
     inkscape:window-y="0"
     inkscape:window-maximized="1"
     inkscape:current-layer="g10" /><g
     id="g10"
     inkscape:groupmode="layer"
     inkscape:label="ink_ext_XXXXXX"
     transform="matrix(1.3333333,0,0,-1.3333333,0,1093.3333)"><path
       inkscape:connector-curvature="0"
       id="path14"
       style="fill:#f0f0f0;fill-opacity:1;fill-rule:nonzero;stroke:none;stroke-width:0.1"
       d="M 10.0781,756.129 H 118.879 c 5.316,0 9.601,-2.078 9.601,-4.66 V 468.766 c 0,-2.582 -4.285,-4.661 -9.601,-4.661 H 10.0781 c -5.31599,0 -9.598022,2.079 -9.598022,4.661 v 282.703 c 0,2.582 4.282032,4.66 9.598022,4.66 z" /><path
       inkscape:connector-curvature="0"
       id="path16"
       style="fill:none;stroke:#000000;stroke-width:0.72397697;stroke-linecap:butt;stroke-linejoin:miter;stroke-miterlimit:4;stroke-dasharray:0.723977, 0.723977;stroke-dashoffset:0;stroke-opacity:1"
       d="M 10.0781,756.133 H 118.879 c 5.316,0 9.601,-2.078 9.601,-4.664 V 468.766 c 0,-2.582 -4.285,-4.661 -9.601,-4.661 H 10.0781 c -5.31599,0 -9.598022,2.079 -9.598022,4.661 v 282.703 c 0,2.586 4.282032,4.664 9.598022,4.664 z" /><path
       inkscape:connector-curvature="0"
       id="path18"
       style="fill:#f0f0f0;fill-opacity:1;fill-rule:nonzero;stroke:none;stroke-width:0.1"
       d="M 163.223,754.254 H 272.02 c 5.32,0 9.601,-2.078 9.601,-4.656 V 466.891 c 0,-2.579 -4.281,-4.657 -9.601,-4.657 H 163.223 c -5.321,0 -9.602,2.078 -9.602,4.657 v 282.707 c 0,2.578 4.281,4.656 9.602,4.656 z" /><path
       inkscape:connector-curvature="0"
       id="path20"
       style="fill:none;stroke:#000000;stroke-width:0.72397697;stroke-linecap:butt;stroke-linejoin:miter;stroke-miterlimit:4;stroke-dasharray:0.723977, 0.723977;stroke-dashoffset:0;stroke-opacity:1"
       d="M 163.223,754.258 H 272.02 c 5.32,0 9.601,-2.082 9.601,-4.66 V 466.891 c 0,-2.579 -4.281,-4.657 -9.601,-4.657 H 163.223 c -5.321,0 -9.602,2.078 -9.602,4.657 v 282.707 c 0,2.578 4.281,4.66 9.602,4.66 z" /><path
       inkscape:connector-curvature="0"
       id="path22"
       style="fill:#f0f0f0;fill-opacity:1;fill-rule:nonzero;stroke:none;stroke-width:0.1"
       d="m 318.648,754.254 h 108.801 c 5.321,0 9.602,-2.078 9.602,-4.656 V 466.891 c 0,-2.579 -4.281,-4.657 -9.602,-4.657 H 318.648 c -5.316,0 -9.597,2.078 -9.597,4.657 v 282.707 c 0,2.578 4.281,4.656 9.597,4.656 z" /><path
       inkscape:connector-curvature="0"
       id="path24"
       style="fill:none;stroke:#000000;stroke-width:0.72397697;stroke-linecap:butt;stroke-linejoin:miter;stroke-miterlimit:4;stroke-dasharray:0.723977, 0.723977;stroke-dashoffset:0;stroke-opacity:1"
       d="m 318.648,754.258 h 108.801 c 5.321,0 9.602,-2.082 9.602,-4.66 V 466.891 c 0,-2.579 -4.281,-4.657 -9.602,-4.657 H 318.648 c -5.316,0 -9.597,2.078 -9.597,4.657 v 282.707 c 0,2.578 4.281,4.66 9.597,4.66 z" /><path
       inkscape:connector-curvature="0"
       id="path26"
       style="fill:#f0f0f0;fill-opacity:1;fill-rule:nonzero;stroke:none;stroke-width:0.1"
       d="m 471.793,754.254 h 108.801 c 5.316,0 9.597,-2.078 9.597,-4.656 V 466.891 c 0,-2.579 -4.281,-4.657 -9.597,-4.657 H 471.793 c -5.32,0 -9.602,2.078 -9.602,4.657 v 282.707 c 0,2.578 4.282,4.656 9.602,4.656 z" /><path
       inkscape:connector-curvature="0"
       id="path28"
       style="fill:none;stroke:#000000;stroke-width:0.72397697;stroke-linecap:butt;stroke-linejoin:miter;stroke-miterlimit:4;stroke-dasharray:0.723977, 0.723977;stroke-dashoffset:0;stroke-opacity:1"
       d="m 471.793,754.258 h 108.801 c 5.316,0 9.597,-2.082 9.597,-4.66 V 466.891 c 0,-2.579 -4.281,-4.657 -9.597,-4.657 H 471.793 c -5.32,0 -9.602,2.078 -9.602,4.657 v 282.707 c 0,2.578 4.282,4.66 9.602,4.66 z" /><path
       inkscape:connector-curvature="0"
       id="path30"
       style="fill:#f0f0f0;fill-opacity:1;fill-rule:nonzero;stroke:none;stroke-width:0.1"
       d="m 5.05117,57.2422 h 601.141 v 218.703 H 5.05117 Z" /><path
       inkscape:connector-curvature="0"
       id="path32"
       style="fill:none;stroke:#000000;stroke-width:1.89177001;stroke-linecap:butt;stroke-linejoin:miter;stroke-miterlimit:4;stroke-dasharray:none;stroke-opacity:1"
       d="m 5.05117,57.2422 h 601.141 v 218.703 H 5.05117 Z" /><g
       id="g34"><text
         id="text40"
         style="font-variant:normal;font-weight:normal;font-size:44.79999924px;font-family:'DejaVu Sans';-inkscape-font-specification:DejaVuSans;writing-mode:lr-tb;fill:#000000;fill-opacity:1;fill-rule:nonzero;stroke:none"
         transform="matrix(1,0,0,-1,85.4277,784.969)"><tspan
           id="tspan36"
           sodipodi:role="line"
           y="0"
           x="0 28.313601 63.0336 93.676804 107.9232 146.5856 174.1376 217.7728 245.1904 263.73761 290.25919 304.50562 332.95361 360.41599 388.81921 414.93768">EGA Memory banks</tspan><tspan
           id="tspan38"
           sodipodi:role="line"
           y="784"
           x="0 29.164907 56.716908 80.057709 108.46091 120.91531 138.47691 152.72331 180.14091 208.54411 222.79051 246.31061 270.95059 288.46732 316.01932 343.57132">Result on screen</tspan></text>
</g><path
       inkscape:connector-curvature="0"
       id="path42"
       style="fill:none;stroke:#000000;stroke-width:2.4000001;stroke-linecap:butt;stroke-linejoin:miter;stroke-miterlimit:4;stroke-dasharray:none;stroke-opacity:1"
       d="M 5.05117,230.234 H 603.906" /><path
       inkscape:connector-curvature="0"
       id="path44"
       style="fill:none;stroke:#000000;stroke-width:2.4000001;stroke-linecap:butt;stroke-linejoin:miter;stroke-miterlimit:4;stroke-dasharray:none;stroke-opacity:1"
       d="M 52.5199,276.195 V 231.473" /><path
       inkscape:connector-curvature="0"
       id="path46"
       style="fill:none;stroke:#000000;stroke-width:2.4000001;stroke-linecap:butt;stroke-linejoin:miter;stroke-miterlimit:4;stroke-dasharray:none;stroke-opacity:1"
       d="M 97.2461,276.195 V 231.473" /><path
       inkscape:connector-curvature="0"
       id="path48"
       style="fill:none;stroke:#000000;stroke-width:2.4000001;stroke-linecap:butt;stroke-linejoin:miter;stroke-miterlimit:4;stroke-dasharray:none;stroke-opacity:1"
       d="M 143.086,276.195 V 231.473" /><path
       inkscape:connector-curvature="0"
       id="path50"
       style="fill:none;stroke:#000000;stroke-width:2.4000001;stroke-linecap:butt;stroke-linejoin:miter;stroke-miterlimit:4;stroke-dasharray:none;stroke-opacity:1"
       d="M 190.047,276.195 V 231.473" /><path
       inkscape:connector-curvature="0"
       id="path52"
       style="fill:none;stroke:#000000;stroke-width:2.4000001;stroke-linecap:butt;stroke-linejoin:miter;stroke-miterlimit:4;stroke-dasharray:none;stroke-opacity:1"
       d="M 235.887,276.195 V 231.473" /><path
       inkscape:connector-curvature="0"
       id="path54"
       style="fill:none;stroke:#000000;stroke-width:2.4000001;stroke-linecap:butt;stroke-linejoin:miter;stroke-miterlimit:4;stroke-dasharray:none;stroke-opacity:1"
       d="M 279.801,274.887 V 230.16" /><path
       inkscape:connector-curvature="0"
       id="path56"
       style="fill:none;stroke:#000000;stroke-width:2.4000001;stroke-linecap:butt;stroke-linejoin:miter;stroke-miterlimit:4;stroke-dasharray:none;stroke-opacity:1"
       d="M 328.688,275.078 V 230.352" /><path
       inkscape:connector-curvature="0"
       id="path58"
       style="fill:none;stroke:#000000;stroke-width:2.4000001;stroke-linecap:butt;stroke-linejoin:miter;stroke-miterlimit:4;stroke-dasharray:none;stroke-opacity:1"
       d="M 376.754,275.387 V 230.66" /><g
       id="g60"><text
         id="text76"
         style="font-variant:normal;font-weight:normal;font-size:38.40000153px;font-family:'DejaVu Sans';-inkscape-font-specification:DejaVuSans;writing-mode:lr-tb;fill:#000000;fill-opacity:1;fill-rule:nonzero;stroke:none"
         transform="matrix(1,0,0,-1,15.45,239.834)"><tspan
           id="tspan62"
           y="0"
           x="0">0</tspan><tspan
           id="tspan64"
           y="0.80000001"
           x="49.599998">1</tspan><tspan
           id="tspan66"
           y="1.6"
           x="232">5</tspan><tspan
           id="tspan68"
           y="0.80000001"
           x="94.400002">2</tspan><tspan
           id="tspan70"
           y="1.6"
           x="186.39999">4</tspan><tspan
           id="tspan72"
           sodipodi:role="line"
           y="0.80000001"
           x="139.2 276.7872">36</tspan><tspan
           id="tspan74"
           y="0"
           x="326.39999">7</tspan></text>
</g><path
       inkscape:connector-curvature="0"
       id="path78"
       style="fill:none;stroke:#000000;stroke-width:0.80000001;stroke-linecap:butt;stroke-linejoin:miter;stroke-miterlimit:4;stroke-dasharray:0.8, 0.8;stroke-dashoffset:0;stroke-opacity:1"
       d="M 0.878906,493.523 H 128.082" /><path
       inkscape:connector-curvature="0"
       id="path80"
       style="fill:none;stroke:#000000;stroke-width:0.80000001;stroke-linecap:butt;stroke-linejoin:miter;stroke-miterlimit:4;stroke-dasharray:0.8, 0.8;stroke-dashoffset:0;stroke-opacity:1"
       d="m 155.281,494.324 h 128" /><path
       inkscape:connector-curvature="0"
       id="path82"
       style="fill:none;stroke:#000000;stroke-width:0.80000001;stroke-linecap:butt;stroke-linejoin:miter;stroke-miterlimit:4;stroke-dasharray:0.8, 0.8;stroke-dashoffset:0;stroke-opacity:1"
       d="m 308.203,494.992 h 128" /><path
       inkscape:connector-curvature="0"
       id="path84"
       style="fill:none;stroke:#000000;stroke-width:0.80000001;stroke-linecap:butt;stroke-linejoin:miter;stroke-miterlimit:4;stroke-dasharray:0.8, 0.8;stroke-dashoffset:0;stroke-opacity:1"
       d="M 462.355,495.117 H 591.156" /><path
       inkscape:connector-curvature="0"
       id="path86"
       style="fill:none;stroke:#000000;stroke-width:6.12592983;stroke-linecap:butt;stroke-linejoin:miter;stroke-miterlimit:4;stroke-dasharray:none;stroke-opacity:1"
       d="M 294.648,410.234 V 334.016" /><path
       inkscape:connector-curvature="0"
       id="path88"
       style="fill:#000000;fill-opacity:1;fill-rule:evenodd;stroke:none;stroke-width:0.1"
       d="m 294.648,305.738 -24.503,42.391 h 49.007 z" /><path
       inkscape:connector-curvature="0"
       id="path90"
       style="fill:none;stroke:#000000;stroke-width:6.12592983;stroke-linecap:butt;stroke-linejoin:miter;stroke-miterlimit:4;stroke-dasharray:none;stroke-opacity:1"
       d="m 294.648,305.738 -24.503,42.395 h 49.007 z" /><path
       inkscape:connector-curvature="0"
       id="path92"
       style="fill:none;stroke:#000000;stroke-width:4;stroke-linecap:butt;stroke-linejoin:miter;stroke-miterlimit:4;stroke-dasharray:none;stroke-opacity:1"
       d="M 57.852,411.031 H 525.051" /><path
       inkscape:connector-curvature="0"
       id="path94"
       style="fill:none;stroke:#000000;stroke-width:4.03286028;stroke-linecap:butt;stroke-linejoin:miter;stroke-miterlimit:4;stroke-dasharray:none;stroke-opacity:1"
       d="M 56.2621,409.027 V 464.66" /><path
       inkscape:connector-curvature="0"
       id="path96"
       style="fill:none;stroke:#000000;stroke-width:4;stroke-linecap:butt;stroke-linejoin:miter;stroke-miterlimit:4;stroke-dasharray:none;stroke-opacity:1"
       d="m 215.043,411.285 v 51.352" /><path
       inkscape:connector-curvature="0"
       id="path98"
       style="fill:none;stroke:#000000;stroke-width:4;stroke-linecap:butt;stroke-linejoin:miter;stroke-miterlimit:4;stroke-dasharray:none;stroke-opacity:1"
       d="m 375.852,411.961 v 50.676" /><path
       inkscape:connector-curvature="0"
       id="path100"
       style="fill:none;stroke:#000000;stroke-width:4;stroke-linecap:butt;stroke-linejoin:miter;stroke-miterlimit:4;stroke-dasharray:none;stroke-opacity:1"
       d="m 523.062,411.305 v 50.672" /><path
       inkscape:connector-curvature="0"
       id="path102"
       style="fill:none;stroke:#000000;stroke-width:0.80000001;stroke-linecap:butt;stroke-linejoin:miter;stroke-miterlimit:4;stroke-dasharray:0.8, 0.8;stroke-dashoffset:0;stroke-opacity:1"
       d="M 1.16406,524.945 H 128.367" /><path
       inkscape:connector-curvature="0"
       id="path104"
       style="fill:none;stroke:#000000;stroke-width:0.80000001;stroke-linecap:butt;stroke-linejoin:miter;stroke-miterlimit:4;stroke-dasharray:0.8, 0.8;stroke-dashoffset:0;stroke-opacity:1"
       d="m 155.566,525.746 h 128" /><path
       inkscape:connector-curvature="0"
       id="path106"
       style="fill:none;stroke:#000000;stroke-width:0.80000001;stroke-linecap:butt;stroke-linejoin:miter;stroke-miterlimit:4;stroke-dasharray:0.8, 0.8;stroke-dashoffset:0;stroke-opacity:1"
       d="m 308.488,526.414 h 128" /><path
       inkscape:connector-curvature="0"
       id="path108"
       style="fill:none;stroke:#000000;stroke-width:0.80000001;stroke-linecap:butt;stroke-linejoin:miter;stroke-miterlimit:4;stroke-dasharray:0.8, 0.8;stroke-dashoffset:0;stroke-opacity:1"
       d="m 462.641,526.539 h 128.8" /><g
       id="g110"><text
         id="text114"
         style="font-variant:normal;font-weight:normal;font-size:22px;font-family:'DejaVu Sans';-inkscape-font-specification:DejaVuSans;writing-mode:lr-tb;fill:#000000;fill-opacity:1;fill-rule:nonzero;stroke:none"
         transform="matrix(1,0,0,-1,28.4938,472.084)"><tspan
           id="tspan112"
           sodipodi:role="line"
           y="0"
           x="0 15.092 28.115999 36.740002 50.27 57.265999">Byte 0</tspan></text>
<text
         id="text118"
         style="font-variant:normal;font-weight:normal;font-size:32px;font-family:'DejaVu Sans';-inkscape-font-specification:DejaVuSans;writing-mode:lr-tb;fill:#000000;fill-opacity:1;fill-rule:nonzero;stroke:none"
         transform="matrix(1,0,0,-1,5.275,723.009)"><tspan
           id="tspan116"
           sodipodi:role="line"
           y="0"
           x="0 21.952 41.183998 61.472 80.384003 91.647888 155.48788 177.4399 196.67189 216.95988 235.87189 247.19984 315.58383 337.53586 356.83191 377.11993 396.03192 407.29581 465.18381 487.1358 506.3678 526.65582 545.56781 556.83173">Bank 0Bank 1Bank 2Bank 3</tspan></text>
<text
         id="text130"
         style="font-variant:normal;font-weight:normal;font-size:22px;font-family:'DejaVu Sans';-inkscape-font-specification:DejaVuSans;writing-mode:lr-tb;fill:#000000;fill-opacity:1;fill-rule:nonzero;stroke:none"
         transform="matrix(1,0,0,-1,181.635,472.084)"><tspan
           id="tspan120"
           sodipodi:role="line"
           y="0"
           x="0 15.092 28.115999 36.740002 50.27 57.265999 155.42978 170.52177 183.54578 192.16978 205.69978 212.69579 308.52756 323.61957 336.64355 345.26755 358.79755 365.79355">Byte 1Byte 2Byte 3</tspan><tspan
           id="tspan122"
           sodipodi:role="line"
           y="127.327"
           x="-173.509 -160.70491 -154.58891 -142.26901 -128.73901 -115.62712 -101.63512 -94.221123 -87.225121 -76.093094 -69.977089 -60.935089 -49.473091 -40.849091 -33.853088 -19.883091 -13.76709 -5.1430902 1.8529098 15.31691 23.060909">Pixel0: First bit of </tspan><tspan
           id="tspan124"
           sodipodi:role="line"
           y="154.827"
           x="-173.509 -158.41701 -145.39301 -136.769 -123.239 -116.243 -102.251 -95.254997 -88.259003 -74.266998 -67.204971 -60.208973 -46.216972 -39.22097 -25.734972 -11.720972 2.249028 9.2450275">Byte 0, 1, 2 and 3</tspan><tspan
           id="tspan126"
           sodipodi:role="line"
           y="127.327"
           x="165.84599 178.65009 184.76608 197.08598 210.61598 216.73198 223.72798 237.71999 245.13399 252.12999 264.38397 277.87 289.3978 298.02182 305.01779 318.98779 325.10379 333.72781 340.72382 354.18781 361.93179">Pixel 7: Last bit of </tspan><tspan
           id="tspan128"
           sodipodi:role="line"
           y="154.827"
           x="165.84599 180.938 193.96201 202.586 216.116 223.112 237.104 244.10001 251.09599 265.08801 272.14999 279.146 293.138 300.134 313.62 327.634 341.604 348.60001">Byte 0, 1, 2 and 3</tspan></text>
</g><g
       transform="scale(0.105301,0.0946988)"
       id="g132"><path
         inkscape:connector-curvature="0"
         id="path134"
         style="fill:none;stroke:#000000;stroke-width:21.15329933;stroke-linecap:butt;stroke-linejoin:miter;stroke-miterlimit:4;stroke-dasharray:none;stroke-opacity:1"
         d="M 266.349,3290.04 V 3026.83" /></g><path
       inkscape:connector-curvature="0"
       id="path136"
       style="fill:#000000;fill-opacity:1;fill-rule:evenodd;stroke:none;stroke-width:0.1"
       d="m 28.0469,277.391 -8.9098,13.863 H 36.957 Z" /><g
       transform="scale(0.105301,0.0946988)"
       id="g138"><path
         inkscape:connector-curvature="0"
         id="path140"
         style="fill:none;stroke:#000000;stroke-width:21.15329933;stroke-linecap:butt;stroke-linejoin:miter;stroke-miterlimit:4;stroke-dasharray:none;stroke-opacity:1"
         d="m 266.349,2929.19 -84.612,146.4 h 169.228 z" /></g><g
       transform="scale(0.105301,0.0946988)"
       id="g142"><path
         inkscape:connector-curvature="0"
         id="path144"
         style="fill:none;stroke:#000000;stroke-width:21.15329933;stroke-linecap:butt;stroke-linejoin:miter;stroke-miterlimit:4;stroke-dasharray:none;stroke-opacity:1"
         d="M 3399.32,3293.59 V 3030.37" /></g><path
       inkscape:connector-curvature="0"
       id="path146"
       style="fill:#000000;fill-opacity:1;fill-rule:evenodd;stroke:none;stroke-width:0.1"
       d="m 357.953,277.727 -8.91,13.863 h 17.82 z" /><g
       transform="scale(0.105301,0.0946988)"
       id="g148"><path
         inkscape:connector-curvature="0"
         id="path150"
         style="fill:none;stroke:#000000;stroke-width:21.15329933;stroke-linecap:butt;stroke-linejoin:miter;stroke-miterlimit:4;stroke-dasharray:none;stroke-opacity:1"
         d="m 3399.32,2932.74 -84.61,146.39 h 169.19 z" /></g></g></svg>