<?xml version="1.0" encoding="UTF-8" standalone="no"?>
<svg
   version="1.1"
   id="svg2"
   xml:space="preserve"
   width="471.49756"
   height="513.6676"
   viewBox="0 0 471.49756 513.66761"
   sodipodi:docname="real_mode_v2.svg"
   inkscape:version="1.4.3 (0d15f75042, 2025-12-25)"
   xmlns:inkscape="http://www.inkscape.org/namespaces/inkscape"
   xmlns:sodipodi="http://sodipodi.sourceforge.net/DTD/sodipodi-0.dtd"
   xmlns="http://www.w3.org/2000/svg"
   xmlns:svg="http://www.w3.org/2000/svg"
   xmlns:rdf="http://www.w3.org/1999/02/22-rdf-syntax-ns#"
   xmlns:cc="http://creativecommons.org/ns#"
   xmlns:dc="http://purl.org/dc/elements/1.1/"><metadata
     id="metadata8"><rdf:RDF><cc:Work
         rdf:about=""><dc:format>image/svg+xml</dc:format><dc:type
           rdf:resource="http://purl.org/dc/dcmitype/StillImage" /></cc:Work></rdf:RDF></metadata><defs
     id="defs6">







</defs><sodipodi:namedview
     pagecolor="#ffffff"
     bordercolor="#666666"
     borderopacity="1"
     objecttolerance="10"
     gridtolerance="10"
     guidetolerance="10"
     inkscape:pageopacity="0"
     inkscape:pageshadow="2"
     inkscape:window-width="2560"
     inkscape:window-height="1528"
     id="namedview4"
     showgrid="false"
     inkscape:zoom="2.3231165"
     inkscape:cx="294.43208"
     inkscape:cy="371.05329"
     inkscape:window-x="0"
     inkscape:window-y="1440"
     inkscape:window-maximized="1"
     inkscape:current-layer="g10"
     inkscape:document-rotation="0"
     inkscape:showpageshadow="2"
     inkscape:pagecheckerboard="0"
     inkscape:deskcolor="#d1d1d1" /><g
     id="g10"
     inkscape:groupmode="layer"
     inkscape:label="ink_ext_XXXXXX"
     transform="matrix(1.3333333,0,0,-1.3333333,0.30718211,551.14081)"><path
   inkscape:connector-curvature="0"
   id="path14"
   style="fill:none;stroke:#000000;stroke-width:1.59404;stroke-linecap:butt;stroke-linejoin:miter;stroke-miterlimit:10;stroke-dasharray:none;stroke-opacity:1"
   d="M 54.457,57.25 H 234.37327"
   sodipodi:nodetypes="cc" /><path
   inkscape:connector-curvature="0"
   id="path16"
   style="fill:none;stroke:#000000;stroke-width:1.59404;stroke-linecap:butt;stroke-linejoin:miter;stroke-miterlimit:10;stroke-dasharray:none;stroke-opacity:1"
   d="M 54.457,85.598 H 234.37327"
   sodipodi:nodetypes="cc" /><path
   inkscape:connector-curvature="0"
   id="path18"
   style="fill:none;stroke:#000000;stroke-width:1.59404;stroke-linecap:butt;stroke-linejoin:miter;stroke-miterlimit:10;stroke-dasharray:none;stroke-opacity:1"
   d="M 54.457,113.941 H 234.37327"
   sodipodi:nodetypes="cc" /><path
   inkscape:connector-curvature="0"
   id="path20"
   style="fill:none;stroke:#000000;stroke-width:1.59404;stroke-linecap:butt;stroke-linejoin:miter;stroke-miterlimit:10;stroke-dasharray:none;stroke-opacity:1"
   d="M 234.37327,28.90195 H 54.457"
   sodipodi:nodetypes="cc" /><path
   inkscape:connector-curvature="0"
   id="path22"
   style="fill:none;stroke:#000000;stroke-width:1.5484;stroke-linecap:butt;stroke-linejoin:miter;stroke-miterlimit:10;stroke-dasharray:none;stroke-opacity:1"
   d="M 234.37327,28.90195 V 409.105"
   sodipodi:nodetypes="cc" /><path
   inkscape:connector-curvature="0"
   id="path24"
   style="fill:none;stroke:#000000;stroke-width:1.59404;stroke-linecap:butt;stroke-linejoin:miter;stroke-miterlimit:10;stroke-dasharray:none;stroke-opacity:1"
   d="M 54.457,409.105 H 234.37327"
   sodipodi:nodetypes="cc" /><path
   inkscape:connector-curvature="0"
   id="path26"
   style="fill:none;stroke:#000000;stroke-width:1.5484;stroke-linecap:butt;stroke-linejoin:miter;stroke-miterlimit:10;stroke-dasharray:none;stroke-opacity:1"
   d="M 54.457,409.105 V 28.90195"
   sodipodi:nodetypes="cc" /><path
   inkscape:connector-curvature="0"
   id="path34"
   style="fill:none;stroke:#000000;stroke-width:1.59404;stroke-linecap:butt;stroke-linejoin:miter;stroke-miterlimit:10;stroke-dasharray:2.98883, 2.98883;stroke-dashoffset:0;stroke-opacity:1"
   d="M 54.457,142.289 H 234.37327"
   sodipodi:nodetypes="cc" /><path
   inkscape:connector-curvature="0"
   id="path36"
   style="fill:none;stroke:#000000;stroke-width:1.59404;stroke-linecap:butt;stroke-linejoin:miter;stroke-miterlimit:10;stroke-dasharray:none;stroke-opacity:1"
   d="M 54.457,285.371 H 234.37327"
   sodipodi:nodetypes="cc" /><text
   transform="scale(1,-1)"
   style="font-style:normal;font-variant:normal;font-weight:normal;font-stretch:normal;font-size:13px;font-family:sans-serif;-inkscape-font-specification:'sans-serif, Normal';font-variant-ligatures:normal;font-variant-caps:normal;font-variant-numeric:normal;font-variant-east-asian:normal;writing-mode:lr-tb;fill:#000000;fill-opacity:1;fill-rule:nonzero;stroke:none"
   id="text46"
   x="121.0153"
   y="-122.756"><tspan
     x="121.0153 130.87131 136.1321 139.69051 147.2681 155.14011 160.40091"
     y="-122.756"
     sodipodi:role="line"
     id="tspan44">Drivers</tspan></text>





<text
   transform="scale(1,-1)"
   style="font-style:normal;font-variant:normal;font-weight:normal;font-stretch:normal;font-size:13px;font-family:sans-serif;-inkscape-font-specification:'sans-serif, Normal';font-variant-ligatures:normal;font-variant-caps:normal;font-variant-numeric:normal;font-variant-east-asian:normal;writing-mode:lr-tb;fill:#000000;fill-opacity:1;fill-rule:nonzero;stroke:none"
   id="text60"
   x="111.16294"
   y="-66.93824"><tspan
     sodipodi:role="line"
     id="tspan58"
     x="111.16294"
     y="-66.93824">BIOS Data</tspan></text><text
   transform="scale(1,-1)"
   style="font-style:normal;font-variant:normal;font-weight:normal;font-stretch:normal;font-size:13px;font-family:sans-serif;-inkscape-font-specification:'sans-serif, Normal';font-variant-ligatures:normal;font-variant-caps:normal;font-variant-numeric:normal;font-variant-east-asian:normal;writing-mode:lr-tb;fill:#000000;fill-opacity:1;fill-rule:nonzero;stroke:none"
   id="text60-1"
   x="74.206886"
   y="-39.261181"><tspan
     sodipodi:role="line"
     id="tspan58-7"
     x="74.206886"
     y="-39.261181">Interrupt Vector table</tspan></text><text
   transform="scale(1,-1)"
   style="font-style:normal;font-variant:normal;font-weight:normal;font-stretch:normal;font-size:13px;font-family:sans-serif;-inkscape-font-specification:'sans-serif, Normal';font-variant-ligatures:normal;font-variant-caps:normal;font-variant-numeric:normal;font-variant-east-asian:normal;writing-mode:lr-tb;fill:#000000;fill-opacity:1;fill-rule:nonzero;stroke:none"
   id="text60-0"
   x="61.260838"
   y="-95.095573"><tspan
     sodipodi:role="line"
     id="tspan58-4"
     x="61.260838"
     y="-95.095573">COMMAND.COM + IO.SYS</tspan></text>


<path
   inkscape:connector-curvature="0"
   id="path66"
   style="fill:#000000;fill-opacity:1;fill-rule:nonzero;stroke:none;stroke-width:0.0975;stroke-dasharray:none"
   d="m 250.93,349.25479 c -0.383,0.10113 -0.692,0.29097 -0.926,0.57217 -0.305,0.3708 -0.535,0.8383 -0.688,1.40692 -0.156,0.57128 -0.246,1.34748 -0.269,2.3357 -0.008,0.48435 -0.008,1.59675 -0.004,3.33633 0.008,1.73603 0.34,48.24239 0.223,49.01504 -0.121,0.77266 -0.309,1.41047 -0.567,1.90635 -0.261,0.495 -0.594,0.88709 -0.996,1.17095 -0.246,0.16678 -0.637,0.30871 -1.172,0.4196 l -0.527,0.11088 -0.024,-2.48118 0.293,-0.0594 c 0.657,-0.13839 1.09,-0.42935 1.297,-0.87999 0.203,-0.44709 -0.09,-46.59951 -0.101,-47.95764 -0.02,-2.45368 -0.012,-4.02027 0.027,-4.70244 0.07,-1.31023 0.246,-2.33925 0.524,-3.08795 0.277,-0.74781 0.722,-1.43442 1.332,-2.05804 -0.692,-0.34951 -1.2,-0.99087 -1.516,-1.91965 -0.32,-0.92878 -0.488,-2.52642 -0.508,-4.78849 -0.019,-2.02078 -0.039,-3.21214 -0.07,-3.57318 -0.039,-0.56153 -0.539,-49.4648 -0.66,-49.74601 -0.09,-0.19072 -0.231,-0.32911 -0.422,-0.40895 -0.196,-0.0834 -0.598,-0.0585 -1.219,0.0728 l -0.023,-2.48118 0.527,-0.10734 c 0.625,-0.13129 1.082,-0.13484 1.375,-0.0169 0.418,0.17299 0.762,0.52693 1.019,1.06007 0.258,0.53048 0.43,1.27829 0.512,2.23812 0.063,0.68306 0.524,50.45656 0.543,52.34871 0.024,1.93385 0.102,3.22988 0.227,3.8881 0.129,0.65822 0.343,1.14346 0.64,1.45571 0.297,0.31137 0.672,0.4329 1.129,0.35661 z" /><path
   inkscape:connector-curvature="0"
   id="path68"
   style="fill:#000000;fill-opacity:1;fill-rule:nonzero;stroke:none;stroke-width:0.149279;stroke-dasharray:none"
   d="m 250.05054,150.76521 c -0.29071,-0.0422 -0.52664,-0.29135 -0.70711,-0.77275 -0.23383,-0.6263 -0.40938,-1.49094 -0.53226,-2.5924 -0.12078,-1.10771 -0.19521,-2.67187 -0.21979,-4.69254 -0.0105,-0.99085 -0.0218,-3.29194 -0.0302,-6.87055 -0.0105,-3.58483 -0.13985,-99.537056 -0.23594,-101.084105 -0.0956,-1.539235 -0.24366,-2.762234 -0.44449,-3.668957 -0.20013,-0.912945 -0.45221,-1.570423 -0.76188,-1.978601 -0.18679,-0.236784 -1.2393,-0.352093 -1.64798,-0.345871 l -0.39744,0.0055 0.0763,2.115402 1.04732,0.171213 c 0.59913,0.30839 0.68591,3.233209 0.84461,4.066706 0.1594,0.833516 0.31528,96.044163 0.31809,98.850023 0.003,5.05708 0.0225,8.28204 0.0576,9.67016 0.0632,2.66561 0.20294,4.71588 0.41991,6.13985 0.21698,1.41307 0.55965,2.62982 1.02591,3.63935 -0.52103,1.02982 -0.89951,2.5753 -1.13264,4.63179 -0.23313,2.05649 -0.34829,5.41696 -0.34337,10.08458 0.003,4.17371 -0.005,6.6384 -0.0246,7.39399 -0.0274,1.17468 -0.006,102.14194 -0.0962,102.77606 -0.0653,0.43776 -0.16993,3.38995 -0.31529,3.63921 -0.14535,0.25551 -1.42242,0.38326 -1.89149,0.39574 l 0.003,2.50061 0.40025,-0.006 c 0.47469,-0.0128 1.79038,-0.20096 2.00946,-0.57177 0.31599,-0.54213 0.57089,-1.42393 0.76259,-2.6298 0.1924,-1.21051 0.31598,-2.823 0.37076,-4.84987 0.0407,-1.43019 -0.0169,-104.16885 -0.0169,-108.07617 0.003,-3.99924 0.0499,-6.70071 0.13974,-8.11846 0.0934,-1.40523 0.24998,-2.50205 0.47187,-3.27478 0.2226,-0.77899 0.50769,-1.18559 0.85317,-1.23546 z"
   sodipodi:nodetypes="cccccscccccccccccsccccccccscccccc" /><text
   transform="scale(1,-1)"
   style="font-variant:normal;font-weight:normal;font-size:13px;font-family:'DejaVu Sans';-inkscape-font-specification:DejaVuSans;writing-mode:lr-tb;fill:#000000;fill-opacity:1;fill-rule:nonzero;stroke:none"
   id="text82"
   x="0.1256641"
   y="-53.457802"><tspan
     x="0.1256641 8.3936634 16.661665 24.929667 33.197662 41.465664"
     y="-53.457802"
     sodipodi:role="line"
     id="tspan78">00400h</tspan><tspan
     x="-0.080194905 8.1878052 16.455807 24.723806 32.991806 41.259804"
     y="-81.560104"
     sodipodi:role="line"
     id="tspan80">00500h</tspan></text>


<path
   inkscape:connector-curvature="0"
   id="path84"
   style="fill:none;stroke:#000000;stroke-width:1.59404;stroke-linecap:butt;stroke-linejoin:miter;stroke-miterlimit:10;stroke-dasharray:none;stroke-opacity:1"
   d="M 55.5199,347.43 H 234.37327"
   sodipodi:nodetypes="cc" /><path
   inkscape:connector-curvature="0"
   id="path86"
   style="fill:none;stroke:#000000;stroke-width:1.59404;stroke-linecap:butt;stroke-linejoin:miter;stroke-miterlimit:10;stroke-dasharray:none;stroke-opacity:1"
   d="M 54.523,317.508 H 234.37327"
   sodipodi:nodetypes="cc" /><text
   transform="scale(1,-1)"
   style="font-variant:normal;font-weight:normal;font-size:13px;font-family:'DejaVu Sans';-inkscape-font-specification:DejaVuSans;writing-mode:lr-tb;fill:#000000;fill-opacity:1;fill-rule:nonzero;stroke:none"
   id="text92"
   x="-0.4329949"
   y="-312.66199"><tspan
     x="-0.4329949 8.4850054 16.753006 25.021006 33.289005 41.557007"
     y="-312.66199"
     sodipodi:role="line"
     id="tspan90">B0000h</tspan></text>
<text
   transform="scale(1,-1)"
   style="font-style:normal;font-variant:normal;font-weight:normal;font-stretch:normal;font-size:13px;font-family:sans-serif;-inkscape-font-specification:'sans-serif, Normal';font-variant-ligatures:normal;font-variant-caps:normal;font-variant-numeric:normal;font-variant-east-asian:normal;writing-mode:lr-tb;fill:#000000;fill-opacity:1;fill-rule:nonzero;stroke:none"
   id="text100"
   x="64.4188"
   y="-297.56039"><tspan
     x="64.4188"
     sodipodi:role="line"
     id="tspan98"
     y="-297.56039">EGA/VGA Video Mapping</tspan></text>
<text
   transform="scale(1,-1)"
   style="font-variant:normal;font-weight:normal;font-size:13px;font-family:'DejaVu Sans';-inkscape-font-specification:DejaVuSans;writing-mode:lr-tb;fill:#000000;fill-opacity:1;fill-rule:nonzero;stroke:none"
   id="text108"
   x="20.597651"
   y="-392.25421"><tspan
     x="78.446053 88.456047 96.45105 104.14705 107.76105 114.91106 122.90605 129.67905 133.81305 146.47505 154.44405 162.69904 170.95404 178.94904 187.20404 191.33804 195.17303 199.6059"
     y="-392.25421"
     sodipodi:role="line"
     id="tspan104">Devices mapped I/O</tspan><tspan
     x="128.51636 137.43436 141.26936 151.50034"
     y="-354.75421"
     sodipodi:role="line"
     id="tspan106">BIOS</tspan></text>
<text
   y="-110.76535"
   x="-0.080194905"
   transform="scale(1,-1)"
   style="font-variant:normal;font-weight:normal;font-size:13px;font-family:'DejaVu Sans';-inkscape-font-specification:DejaVuSans;writing-mode:lr-tb;fill:#000000;fill-opacity:1;fill-rule:nonzero;stroke:none"
   id="text112"><tspan
     x="-0.080194905 8.1878042 16.455805 24.723806 32.991802 41.259804"
     y="-110.76535"
     sodipodi:role="line"
     id="tspan110">00600h</tspan></text>
<text
   xml:space="preserve"
   style="font-style:normal;font-variant:normal;font-weight:normal;font-stretch:normal;font-size:16px;line-height:1.25;font-family:sans-serif;-inkscape-font-specification:'sans-serif, Normal';font-variant-ligatures:normal;font-variant-caps:normal;font-variant-numeric:normal;font-feature-settings:normal;text-align:start;letter-spacing:0px;word-spacing:0px;writing-mode:lr-tb;text-anchor:start;fill:#000000;fill-opacity:1;stroke:none;stroke-width:0.75"
   x="260.82736"
   y="-344.05722"
   id="text1003"
   transform="scale(1,-1)"><tspan
     sodipodi:role="line"
     id="tspan1001"
     x="260.82736"
     y="-344.05722"
     style="font-style:normal;font-variant:normal;font-weight:normal;font-stretch:normal;font-size:14px;font-family:sans-serif;-inkscape-font-specification:'sans-serif, Normal';font-variant-ligatures:normal;font-variant-caps:normal;font-variant-numeric:normal;font-feature-settings:normal;text-align:start;writing-mode:lr-tb;text-anchor:start;stroke-width:0.75">UMA</tspan></text>


<text
   xml:space="preserve"
   style="font-style:normal;font-variant:normal;font-weight:normal;font-stretch:normal;font-size:16px;line-height:1.25;font-family:sans-serif;-inkscape-font-specification:'sans-serif, Normal';font-variant-ligatures:normal;font-variant-caps:normal;font-variant-numeric:normal;font-feature-settings:normal;text-align:start;letter-spacing:0px;word-spacing:0px;writing-mode:lr-tb;text-anchor:start;fill:#000000;fill-opacity:1;stroke:none;stroke-width:0.75"
   x="103.10215"
   y="-208.3252"
   id="text1007"
   transform="scale(1,-1)"><tspan
     sodipodi:role="line"
     id="tspan1005"
     x="103.10215"
     y="-208.3252"
     style="font-style:normal;font-variant:normal;font-weight:normal;font-stretch:normal;font-size:14px;font-family:sans-serif;-inkscape-font-specification:'sans-serif, Normal';font-variant-ligatures:normal;font-variant-caps:normal;font-variant-numeric:normal;font-feature-settings:normal;text-align:start;writing-mode:lr-tb;text-anchor:start;stroke-width:0.75">Usable RAM</tspan></text>


<text
   xml:space="preserve"
   style="font-style:normal;font-variant:normal;font-weight:normal;font-stretch:normal;font-size:16px;line-height:1.25;font-family:sans-serif;-inkscape-font-specification:'sans-serif, Normal';font-variant-ligatures:normal;font-variant-caps:normal;font-variant-numeric:normal;font-feature-settings:normal;text-align:start;letter-spacing:0px;word-spacing:0px;writing-mode:lr-tb;text-anchor:start;fill:#000000;fill-opacity:1;stroke:none;stroke-width:0.75"
   x="261.12131"
   y="-162.9371"
   id="text1011"
   transform="scale(1,-1)"><tspan
     sodipodi:role="line"
     id="tspan1009"
     x="261.12131"
     y="-162.9371"
     style="font-style:normal;font-variant:normal;font-weight:normal;font-stretch:normal;font-size:14px;font-family:sans-serif;-inkscape-font-specification:'sans-serif, Normal';font-variant-ligatures:normal;font-variant-caps:normal;font-variant-numeric:normal;font-feature-settings:normal;text-align:start;writing-mode:lr-tb;text-anchor:start;stroke-width:0.75">Conventional </tspan><tspan
     sodipodi:role="line"
     x="261.12131"
     y="-142.9371"
     style="font-style:normal;font-variant:normal;font-weight:normal;font-stretch:normal;font-size:14px;font-family:sans-serif;-inkscape-font-specification:'sans-serif, Normal';font-variant-ligatures:normal;font-variant-caps:normal;font-variant-numeric:normal;font-feature-settings:normal;text-align:start;writing-mode:lr-tb;text-anchor:start;stroke-width:0.75"
     id="tspan1">memory</tspan></text>


<text
   style="font-variant:normal;font-weight:normal;font-size:13px;font-family:'DejaVu Sans';-inkscape-font-specification:DejaVuSans;writing-mode:lr-tb;fill:#000000;fill-opacity:1;fill-rule:nonzero;stroke:none;stroke-width:1"
   id="text82-4"
   x="3.6099701"
   y="-403.47867"
   transform="scale(1,-1)"><tspan
     style="stroke-width:1"
     sodipodi:role="line"
     id="tspan80-7"
     x="3.6099701"
     y="-403.47867">FFFFFh</tspan></text>

<text
   style="font-variant:normal;font-weight:normal;font-size:13px;font-family:'DejaVu Sans';-inkscape-font-specification:DejaVuSans;writing-mode:lr-tb;fill:#000000;fill-opacity:1;fill-rule:nonzero;stroke:none;stroke-width:1"
   id="text82-4-7"
   x="-0.33194908"
   y="-281.0997"
   transform="scale(1,-1)"><tspan
     style="stroke-width:1"
     sodipodi:role="line"
     id="tspan80-7-4"
     x="-0.33194908"
     y="-281.0997">A0000h</tspan></text>

<text
   style="font-variant:normal;font-weight:normal;font-size:13px;font-family:'DejaVu Sans';-inkscape-font-specification:DejaVuSans;writing-mode:lr-tb;fill:#000000;fill-opacity:1;fill-rule:nonzero;stroke:none;stroke-width:1"
   id="text82-4-7-9"
   x="-0.080194846"
   y="-28.610403"
   transform="scale(1,-1)"><tspan
     style="stroke-width:1"
     sodipodi:role="line"
     id="tspan80-7-4-8"
     x="-0.080194846"
     y="-28.610403">00000h</tspan></text>

<text
   style="font-style:normal;font-variant:normal;font-weight:normal;font-stretch:normal;font-size:13px;font-family:sans-serif;-inkscape-font-specification:'sans-serif, Normal';font-variant-ligatures:normal;font-variant-caps:normal;font-variant-numeric:normal;font-variant-east-asian:normal;writing-mode:lr-tb;fill:#000000;fill-opacity:1;fill-rule:nonzero;stroke:none;stroke-width:1"
   id="text100-6"
   x="60.235691"
   y="-329.06039"
   transform="scale(1,-1)"><tspan
     style="font-style:normal;font-variant:normal;font-weight:normal;font-stretch:normal;font-size:13px;font-family:sans-serif;-inkscape-font-specification:'sans-serif, Normal';font-variant-ligatures:normal;font-variant-caps:normal;font-variant-numeric:normal;font-variant-east-asian:normal;stroke-width:1"
     x="60.235691"
     sodipodi:role="line"
     id="tspan98-8"
     y="-329.06039">Mono/CGA Video Mapping</tspan></text>
<text
   style="font-variant:normal;font-weight:normal;font-size:13px;font-family:'DejaVu Sans';-inkscape-font-specification:DejaVuSans;writing-mode:lr-tb;fill:#000000;fill-opacity:1;fill-rule:nonzero;stroke:none;stroke-width:1"
   id="text92-0"
   x="-0.64220756"
   y="-343.80368"
   transform="scale(1,-1)"><tspan
     style="stroke-width:1"
     sodipodi:role="line"
     id="tspan90-5"
     x="-0.64220756"
     y="-343.80368">C0000h</tspan></text>
</g></svg>
