<?xml version="1.0" encoding="UTF-8" standalone="no"?>
<!-- Created with Inkscape (http://www.inkscape.org/) -->

<svg
   xmlns:dc="http://purl.org/dc/elements/1.1/"
   xmlns:cc="http://creativecommons.org/ns#"
   xmlns:rdf="http://www.w3.org/1999/02/22-rdf-syntax-ns#"
   xmlns:svg="http://www.w3.org/2000/svg"
   xmlns="http://www.w3.org/2000/svg"
   xmlns:sodipodi="http://sodipodi.sourceforge.net/DTD/sodipodi-0.dtd"
   xmlns:inkscape="http://www.inkscape.org/namespaces/inkscape"
   version="1.1"
   id="svg2"
   xml:space="preserve"
   width="440"
   height="574.66669"
   viewBox="0 0 440 574.66669"
   sodipodi:docname="real_mode_v2.svg"
   inkscape:version="0.92.3 (2405546, 2018-03-11)"><metadata
     id="metadata8"><rdf:RDF><cc:Work
         rdf:about=""><dc:format>image/svg+xml</dc:format><dc:type
           rdf:resource="http://purl.org/dc/dcmitype/StillImage" /><dc:title></dc:title></cc:Work></rdf:RDF></metadata><defs
     id="defs6" /><sodipodi:namedview
     pagecolor="#ffffff"
     bordercolor="#666666"
     borderopacity="1"
     objecttolerance="10"
     gridtolerance="10"
     guidetolerance="10"
     inkscape:pageopacity="0"
     inkscape:pageshadow="2"
     inkscape:window-width="1920"
     inkscape:window-height="1012"
     id="namedview4"
     showgrid="false"
     inkscape:zoom="1.6426914"
     inkscape:cx="283.86925"
     inkscape:cy="366.08696"
     inkscape:window-x="0"
     inkscape:window-y="0"
     inkscape:window-maximized="1"
     inkscape:current-layer="g10" /><g
     id="g10"
     inkscape:groupmode="layer"
     inkscape:label="ink_ext_XXXXXX"
     transform="matrix(1.3333333,0,0,-1.3333333,0,574.66667)"><path
       inkscape:connector-curvature="0"
       id="path14"
       style="fill:none;stroke:#808080;stroke-width:1.59404004;stroke-linecap:butt;stroke-linejoin:miter;stroke-miterlimit:10;stroke-dasharray:none;stroke-opacity:1"
       d="M 54.457,30.25 H 196.188" /><path
       inkscape:connector-curvature="0"
       id="path16"
       style="fill:none;stroke:#808080;stroke-width:1.59404004;stroke-linecap:butt;stroke-linejoin:miter;stroke-miterlimit:10;stroke-dasharray:none;stroke-opacity:1"
       d="M 54.457,58.598 H 196.188" /><path
       inkscape:connector-curvature="0"
       id="path18"
       style="fill:none;stroke:#808080;stroke-width:1.59404004;stroke-linecap:butt;stroke-linejoin:miter;stroke-miterlimit:10;stroke-dasharray:none;stroke-opacity:1"
       d="M 54.457,86.941 H 196.188" /><path
       inkscape:connector-curvature="0"
       id="path20"
       style="fill:none;stroke:#000000;stroke-width:1.59404004;stroke-linecap:butt;stroke-linejoin:miter;stroke-miterlimit:10;stroke-dasharray:none;stroke-opacity:1"
       d="M 196.188,1.90195 H 54.457" /><path
       inkscape:connector-curvature="0"
       id="path22"
       style="fill:none;stroke:#000000;stroke-width:1.59404004;stroke-linecap:butt;stroke-linejoin:miter;stroke-miterlimit:10;stroke-dasharray:none;stroke-opacity:1"
       d="M 196.188,1.90195 V 427.105" /><path
       inkscape:connector-curvature="0"
       id="path24"
       style="fill:none;stroke:#000000;stroke-width:1.59404004;stroke-linecap:butt;stroke-linejoin:miter;stroke-miterlimit:10;stroke-dasharray:none;stroke-opacity:1"
       d="M 54.457,427.105 H 196.188" /><path
       inkscape:connector-curvature="0"
       id="path26"
       style="fill:none;stroke:#000000;stroke-width:1.59404004;stroke-linecap:butt;stroke-linejoin:miter;stroke-miterlimit:10;stroke-dasharray:none;stroke-opacity:1"
       d="M 54.457,427.105 V 1.90195" /><g
       id="g28"><text
         id="text32"
         style="font-variant:normal;font-weight:normal;font-size:11.19999981px;font-family:'DejaVu Sans';-inkscape-font-specification:DejaVuSans;writing-mode:lr-tb;fill:#000000;fill-opacity:1;fill-rule:nonzero;stroke:none"
         transform="matrix(1,0,0,-1,65.9086,13.3301)"><tspan
           id="tspan30"
           sodipodi:role="line"
           y="0"
           x="0 3.3039999 10.4048 14.7952 21.683201 26.107103 30.710304 37.844704 44.956703 49.347103 52.908703 59.696068 66.584068 72.710464 77.100868 83.955269 88.558464 92.120064 96.510468 103.43192 110.54392 113.65752">Interrupt Vector table</tspan></text>
</g><path
       inkscape:connector-curvature="0"
       id="path34"
       style="fill:none;stroke:#808080;stroke-width:1.59404004;stroke-linecap:butt;stroke-linejoin:miter;stroke-miterlimit:10;stroke-dasharray:2.98883, 2.98883;stroke-dashoffset:0;stroke-opacity:1"
       d="M 54.457,115.289 H 196.188" /><path
       inkscape:connector-curvature="0"
       id="path36"
       style="fill:none;stroke:#000000;stroke-width:1.59404004;stroke-linecap:butt;stroke-linejoin:miter;stroke-miterlimit:10;stroke-dasharray:none;stroke-opacity:1"
       d="M 54.457,285.371 H 196.188" /><text
       transform="scale(1,-1)"
       style="font-variant:normal;font-weight:normal;font-size:12.80000019px;font-family:'DejaVu Sans';-inkscape-font-specification:DejaVuSans;writing-mode:lr-tb;fill:#000000;fill-opacity:1;fill-rule:nonzero;stroke:none"
       id="text46"
       x="103.041"
       y="-95.755997"><tspan
         x="103.041 112.897 118.1578 121.7162 129.29379 137.1658 142.42661"
         y="-95.755997"
         sodipodi:role="line"
         id="tspan44">Drivers</tspan></text>
<text
       transform="scale(1,-1)"
       style="font-variant:normal;font-weight:normal;font-size:10.39999962px;font-family:'DejaVu Sans';-inkscape-font-specification:DejaVuSans;writing-mode:lr-tb;fill:#000000;fill-opacity:1;fill-rule:nonzero;stroke:none"
       id="text50"
       x="59.178501"
       y="-68.9767"><tspan
         x="59.178501 66.437698 74.622498 83.597702 92.572899 99.686501 107.4657 115.4737 118.7809 126.0401 134.2249 143.23137 146.53856 155.25377 158.56096 161.62897 169.39775 172.70494 179.30894 185.66335"
         y="-68.9767"
         sodipodi:role="line"
         id="tspan48">COMMAND.COM + IO.SYS</tspan></text>
<text
       transform="scale(1,-1)"
       style="font-variant:normal;font-weight:normal;font-size:12.80000019px;font-family:'DejaVu Sans';-inkscape-font-specification:DejaVuSans;writing-mode:lr-tb;fill:#000000;fill-opacity:1;fill-rule:nonzero;stroke:none"
       id="text60"
       x="92.883598"
       y="-40.812199"><tspan
         x="92.883598 101.6644 105.4404 115.514 123.642 127.7124 137.56841 145.41479 150.4324"
         y="-40.812199"
         sodipodi:role="line"
         id="tspan52">BIOS Data</tspan><tspan
         x="2.8496034 10.209597 17.569597 24.929598 32.289597 39.649597"
         y="-420.80121"
         sodipodi:role="line"
         id="tspan54">FFFFFh</tspan><tspan
         x="0.079286337 8.8344898 16.97529 25.116091 33.256889 41.39769"
         y="-280.90219"
         sodipodi:role="line"
         id="tspan56">A0000h</tspan><tspan
         x="-0.84414506 7.2966557 15.437449 23.578249 31.719053 39.859852"
         y="-0.18119948"
         sodipodi:role="line"
         id="tspan58">00000h</tspan></text>
<path
       inkscape:connector-curvature="0"
       id="path66"
       style="fill:#000000;fill-opacity:1;fill-rule:nonzero;stroke:none;stroke-width:0.1"
       d="m 217.93,357.402 c -0.383,0.114 -0.692,0.328 -0.926,0.645 -0.305,0.418 -0.535,0.945 -0.688,1.586 -0.156,0.644 -0.246,1.519 -0.269,2.633 -0.008,0.546 -0.008,1.8 -0.004,3.761 0.008,1.957 0.34,54.383 0.223,55.254 -0.121,0.871 -0.309,1.59 -0.567,2.149 -0.261,0.558 -0.594,1 -0.996,1.32 -0.246,0.188 -0.637,0.348 -1.172,0.473 l -0.527,0.125 -0.024,-2.797 0.293,-0.067 c 0.657,-0.156 1.09,-0.484 1.297,-0.992 0.203,-0.504 -0.09,-52.531 -0.101,-54.062 -0.02,-2.766 -0.012,-4.532 0.027,-5.301 0.07,-1.477 0.246,-2.637 0.524,-3.481 0.277,-0.843 0.722,-1.617 1.332,-2.32 -0.692,-0.394 -1.2,-1.117 -1.516,-2.164 -0.32,-1.047 -0.488,-2.848 -0.508,-5.398 -0.019,-2.278 -0.039,-3.621 -0.07,-4.028 -0.039,-0.633 -0.539,-55.761 -0.66,-56.078 -0.09,-0.215 -0.231,-0.371 -0.422,-0.461 -0.196,-0.094 -0.598,-0.066 -1.219,0.082 l -0.023,-2.797 0.527,-0.121 c 0.625,-0.148 1.082,-0.152 1.375,-0.019 0.418,0.195 0.762,0.594 1.019,1.195 0.258,0.598 0.43,1.441 0.512,2.523 0.063,0.77 0.524,56.879 0.543,59.012 0.024,2.18 0.102,3.641 0.227,4.383 0.129,0.742 0.343,1.289 0.64,1.641 0.297,0.351 0.672,0.488 1.129,0.402 z" /><path
       inkscape:connector-curvature="0"
       id="path68"
       style="fill:#000000;fill-opacity:1;fill-rule:nonzero;stroke:none;stroke-width:0.1"
       d="m 217.945,198.781 c -0.414,-0.027 -0.75,-0.187 -1.007,-0.496 -0.333,-0.402 -0.583,-0.957 -0.758,-1.664 -0.172,-0.711 -0.278,-1.715 -0.313,-3.012 -0.015,-0.636 -0.031,-2.113 -0.043,-4.41 -0.015,-2.301 -0.199,-63.89 -0.336,-64.883 -0.136,-0.988 -0.347,-1.773 -0.633,-2.355 -0.285,-0.586 -0.644,-1.008 -1.085,-1.27 -0.266,-0.152 -0.688,-0.226 -1.27,-0.222 l -0.566,0.004 0.007,3.281 h 0.313 c 0.711,-0.004 1.18,0.262 1.406,0.797 0.227,0.535 0.449,61.648 0.453,63.449 0.004,3.246 0.032,5.316 0.082,6.207 0.09,1.711 0.289,3.027 0.598,3.941 0.309,0.907 0.797,1.688 1.461,2.336 -0.742,0.661 -1.281,1.653 -1.613,2.973 -0.332,1.32 -0.496,3.477 -0.489,6.473 0.004,2.679 -0.007,4.261 -0.035,4.746 -0.039,0.754 -0.008,65.562 -0.137,65.969 -0.093,0.281 -0.242,0.5 -0.449,0.66 -0.207,0.164 -0.644,0.246 -1.312,0.254 l 0.004,3.281 0.57,-0.004 c 0.676,-0.008 1.168,-0.129 1.48,-0.367 0.45,-0.348 0.813,-0.914 1.086,-1.688 0.274,-0.777 0.45,-1.812 0.528,-3.113 0.058,-0.918 -0.024,-66.863 -0.024,-69.371 0.004,-2.567 0.071,-4.301 0.199,-5.211 0.133,-0.902 0.356,-1.606 0.672,-2.102 0.317,-0.5 0.723,-0.761 1.215,-0.793 z" /><path
       inkscape:connector-curvature="0"
       id="path70"
       style="fill:#000000;fill-opacity:1;fill-rule:nonzero;stroke:none;stroke-width:0.1"
       d="m 217.898,63.9531 c -0.406,-0.0582 -0.734,-0.0121 -0.988,0.1489 -0.324,0.2101 -0.57,0.5429 -0.742,0.9921 -0.168,0.4528 -0.266,1.1129 -0.297,1.9879 -0.012,0.434 -0.019,1.4301 -0.023,2.9879 -0.008,1.5633 0.054,43.3871 -0.078,44.0321 -0.129,0.648 -0.336,1.144 -0.614,1.488 -0.277,0.344 -0.633,0.562 -1.066,0.66 -0.258,0.051 -0.676,0.023 -1.246,-0.086 l -0.559,-0.109 -0.008,-2.227 0.309,0.059 c 0.699,0.133 1.16,0.039 1.383,-0.282 0.219,-0.32 0.203,-41.812 0.199,-43.0351 -0.008,-2.207 0.012,-3.6051 0.055,-4.2027 0.082,-1.1481 0.273,-2.0043 0.574,-2.566 0.305,-0.5633 0.777,-1 1.43,-1.3211 -0.735,-0.5852 -1.266,-1.359 -1.598,-2.316 -0.332,-0.9571 -0.504,-2.4571 -0.508,-4.4922 -0.008,-1.8168 -0.023,-2.8949 -0.051,-3.2309 -0.043,-0.5191 -0.265,-44.5578 -0.39,-44.85506 -0.094,-0.20703 -0.242,-0.38672 -0.446,-0.53477 -0.203,-0.14922 -0.636,-0.28515 -1.293,-0.41015 l -0.007,-2.23086 0.558,0.10976 c 0.664,0.125 1.153,0.3 1.457,0.51914 0.449,0.32383 0.809,0.77305 1.078,1.35196 0.27,0.57812 0.45,1.31211 0.532,2.21093 0.062,0.63594 0.234,45.43325 0.246,47.14025 0.011,1.7418 0.086,2.9379 0.218,3.5738 0.129,0.641 0.352,1.161 0.668,1.559 0.313,0.3949 0.711,0.648 1.2,0.7621 z" /><text
       transform="scale(1,-1)"
       style="font-variant:normal;font-weight:normal;font-size:13px;font-family:'DejaVu Sans';-inkscape-font-specification:DejaVuSans;writing-mode:lr-tb;fill:#000000;fill-opacity:1;fill-rule:nonzero;stroke:none"
       id="text82"
       x="0.68599999"
       y="-26.4578"><tspan
         x="0.68599999 8.9539995 17.222 25.490002 33.757999 42.026001"
         y="-26.4578"
         sodipodi:role="line"
         id="tspan78">00400h</tspan><tspan
         x="0.48014098 8.7481413 17.016142 25.284142 33.552143 41.820141"
         y="-54.560101"
         sodipodi:role="line"
         id="tspan80">00500h</tspan></text>
<path
       inkscape:connector-curvature="0"
       id="path84"
       style="fill:none;stroke:#000000;stroke-width:1.59404004;stroke-linecap:butt;stroke-linejoin:miter;stroke-miterlimit:10;stroke-dasharray:none;stroke-opacity:1"
       d="M 55.5199,347.43 H 197.25" /><path
       inkscape:connector-curvature="0"
       id="path86"
       style="fill:none;stroke:#000000;stroke-width:1.59404004;stroke-linecap:butt;stroke-linejoin:miter;stroke-miterlimit:10;stroke-dasharray:none;stroke-opacity:1"
       d="M 54.523,317.508 H 196.254" /><g
       id="g88"><text
         id="text92"
         style="font-variant:normal;font-weight:normal;font-size:13px;font-family:'DejaVu Sans';-inkscape-font-specification:DejaVuSans;writing-mode:lr-tb;fill:#000000;fill-opacity:1;fill-rule:nonzero;stroke:none"
         transform="matrix(1,0,0,-1,-0.363672,312.662)"><tspan
           id="tspan90"
           sodipodi:role="line"
           y="0"
           x="0 8.9180002 17.186001 25.454 33.722 41.990002">B0000h</tspan></text>
<text
         id="text100"
         style="font-variant:normal;font-weight:normal;font-size:11px;font-family:'DejaVu Sans';-inkscape-font-specification:DejaVuSans;writing-mode:lr-tb;fill:#000000;fill-opacity:1;fill-rule:nonzero;stroke:none"
         transform="matrix(1,0,0,-1,58.072228,297.5604)"><tspan
           id="tspan94"
           sodipodi:role="line"
           y="0"
           x="0 6.9520001 15.477 23.000999 26.708 34.231998 42.757 50.280998 53.778999 61.083176 64.141174 71.126175 77.891174 84.623177 88.121178 97.614174 104.37917 115.09318 121.82517 126.34618">EGA/VGA Video Memory</tspan><tspan
           id="tspan96"
           sodipodi:role="line"
           y="-39.337101"
           x="12.8977 22.390699 29.1227 36.096699 42.828701 46.535702 54.213699 62.782646 70.306648 74.013649 80.965645 89.490646 97.014648 100.72164 108.24564 116.77065 124.29465">Mono/CGA/EGA/VGA </tspan><tspan
           id="tspan98"
           sodipodi:role="line"
           y="-23.087099"
           x="1.0383 8.0233002 12.3353 19.0783 26.052299 33.0373 39.7803 44.158428 51.143429 54.64143 61.923241 64.981239 71.96624 78.731239 85.463242 88.961243 98.454239 105.19724 112.18224 119.16724 122.22524 129.19925">Standard Video Mapping</tspan></text>
<text
         id="text108"
         style="font-variant:normal;font-weight:normal;font-size:13px;font-family:'DejaVu Sans';-inkscape-font-specification:DejaVuSans;writing-mode:lr-tb;fill:#000000;fill-opacity:1;fill-rule:nonzero;stroke:none"
         transform="matrix(1,0,0,-1,0.182428,343.9077)"><tspan
           id="tspan102"
           sodipodi:role="line"
           y="0"
           x="0 9.0740004 17.341999 25.610001 33.877998 42.146">C0000h</tspan><tspan
           id="tspan104"
           sodipodi:role="line"
           y="-57.3465"
           x="57.8484 67.858398 75.853401 83.5494 87.163399 94.3134 102.3084 109.0814 113.2154 125.8774 133.84641 142.10139 150.3564 158.35139 166.6064 170.7404 174.57539 179.00826">Devices mapped I/O</tspan><tspan
           id="tspan106"
           sodipodi:role="line"
           y="-19.8465"
           x="107.9187 116.8367 120.6717 130.90269">BIOS</tspan></text>
<text
         id="text112"
         style="font-variant:normal;font-weight:normal;font-size:13px;font-family:'DejaVu Sans';-inkscape-font-specification:DejaVuSans;writing-mode:lr-tb;fill:#000000;fill-opacity:1;fill-rule:nonzero;stroke:none"
         transform="matrix(1,0,0,-1,-0.010872,82.8142)"><tspan
           id="tspan110"
           sodipodi:role="line"
           y="0"
           x="0 8.2679996 16.535999 24.804001 33.071999 41.34">00600h</tspan></text>
</g><text
       xml:space="preserve"
       style="font-style:normal;font-variant:normal;font-weight:normal;font-stretch:normal;font-size:16px;line-height:1.25;font-family:sans-serif;-inkscape-font-specification:'sans-serif, Normal';font-variant-ligatures:normal;font-variant-caps:normal;font-variant-numeric:normal;font-feature-settings:normal;text-align:start;letter-spacing:0px;word-spacing:0px;writing-mode:lr-tb;text-anchor:start;fill:#000000;fill-opacity:1;stroke:none;stroke-width:0.75"
       x="227.82735"
       y="-351.55722"
       id="text1003"
       transform="scale(1,-1)"><tspan
         sodipodi:role="line"
         id="tspan1001"
         x="227.82735"
         y="-351.55722"
         style="font-style:normal;font-variant:normal;font-weight:normal;font-stretch:normal;font-size:14px;font-family:sans-serif;-inkscape-font-specification:'sans-serif, Normal';font-variant-ligatures:normal;font-variant-caps:normal;font-variant-numeric:normal;font-feature-settings:normal;text-align:start;writing-mode:lr-tb;text-anchor:start;stroke-width:0.75">UMA</tspan></text>
<text
       xml:space="preserve"
       style="font-style:normal;font-variant:normal;font-weight:normal;font-stretch:normal;font-size:16px;line-height:1.25;font-family:sans-serif;-inkscape-font-specification:'sans-serif, Normal';font-variant-ligatures:normal;font-variant-caps:normal;font-variant-numeric:normal;font-feature-settings:normal;text-align:start;letter-spacing:0px;word-spacing:0px;writing-mode:lr-tb;text-anchor:start;fill:#000000;fill-opacity:1;stroke:none;stroke-width:0.75"
       x="227.82735"
       y="-197.23727"
       id="text1007"
       transform="scale(1,-1)"><tspan
         sodipodi:role="line"
         id="tspan1005"
         x="227.82735"
         y="-197.23727"
         style="font-style:normal;font-variant:normal;font-weight:normal;font-stretch:normal;font-size:14px;font-family:sans-serif;-inkscape-font-specification:'sans-serif, Normal';font-variant-ligatures:normal;font-variant-caps:normal;font-variant-numeric:normal;font-feature-settings:normal;text-align:start;writing-mode:lr-tb;text-anchor:start;stroke-width:0.75">Usable RAM</tspan></text>
<text
       xml:space="preserve"
       style="font-style:normal;font-variant:normal;font-weight:normal;font-stretch:normal;font-size:16px;line-height:1.25;font-family:sans-serif;-inkscape-font-specification:'sans-serif, Normal';font-variant-ligatures:normal;font-variant-caps:normal;font-variant-numeric:normal;font-feature-settings:normal;text-align:start;letter-spacing:0px;word-spacing:0px;writing-mode:lr-tb;text-anchor:start;fill:#000000;fill-opacity:1;stroke:none;stroke-width:0.75"
       x="228.12129"
       y="-58.89724"
       id="text1011"
       transform="scale(1,-1)"><tspan
         sodipodi:role="line"
         id="tspan1009"
         x="228.12129"
         y="-58.89724"
         style="font-style:normal;font-variant:normal;font-weight:normal;font-stretch:normal;font-size:14px;font-family:sans-serif;-inkscape-font-specification:'sans-serif, Normal';font-variant-ligatures:normal;font-variant-caps:normal;font-variant-numeric:normal;font-feature-settings:normal;text-align:start;writing-mode:lr-tb;text-anchor:start;stroke-width:0.75">System RAM</tspan></text>
</g></svg>