<?xml version="1.0" encoding="UTF-8" standalone="no"?>
<svg
   xmlns:dc="http://purl.org/dc/elements/1.1/"
   xmlns:cc="http://creativecommons.org/ns#"
   xmlns:rdf="http://www.w3.org/1999/02/22-rdf-syntax-ns#"
   xmlns:svg="http://www.w3.org/2000/svg"
   xmlns="http://www.w3.org/2000/svg"
   xmlns:sodipodi="http://sodipodi.sourceforge.net/DTD/sodipodi-0.dtd"
   xmlns:inkscape="http://www.inkscape.org/namespaces/inkscape"
   version="1.1"
   id="svg2"
   xml:space="preserve"
   width="425.30353"
   height="617.6676"
   viewBox="0 0 425.30353 617.66761"
   sodipodi:docname="real_mode_v2.svg"
   inkscape:version="1.0.2 (1.0.2+r75+1)"><metadata
     id="metadata8"><rdf:RDF><cc:Work
         rdf:about=""><dc:format>image/svg+xml</dc:format><dc:type
           rdf:resource="http://purl.org/dc/dcmitype/StillImage" /><dc:title></dc:title></cc:Work></rdf:RDF></metadata><defs
     id="defs6">







</defs><sodipodi:namedview
     pagecolor="#ffffff"
     bordercolor="#666666"
     borderopacity="1"
     objecttolerance="10"
     gridtolerance="10"
     guidetolerance="10"
     inkscape:pageopacity="0"
     inkscape:pageshadow="2"
     inkscape:window-width="1920"
     inkscape:window-height="1015"
     id="namedview4"
     showgrid="false"
     inkscape:zoom="1.1615582"
     inkscape:cx="307.95095"
     inkscape:cy="328.75162"
     inkscape:window-x="0"
     inkscape:window-y="0"
     inkscape:window-maximized="1"
     inkscape:current-layer="g10"
     inkscape:document-rotation="0" /><g
     id="g10"
     inkscape:groupmode="layer"
     inkscape:label="ink_ext_XXXXXX"
     transform="matrix(1.3333333,0,0,-1.3333333,0.30718211,573.14081)"><path
   inkscape:connector-curvature="0"
   id="path14"
   style="fill:none;stroke:#000000;stroke-width:1.59404;stroke-linecap:butt;stroke-linejoin:miter;stroke-miterlimit:10;stroke-dasharray:none;stroke-opacity:1"
   d="M 54.457,-4.2500001 H 205.06616"
   sodipodi:nodetypes="cc" /><path
   inkscape:connector-curvature="0"
   id="path16"
   style="fill:none;stroke:#000000;stroke-width:1.59404;stroke-linecap:butt;stroke-linejoin:miter;stroke-miterlimit:10;stroke-dasharray:none;stroke-opacity:1"
   d="M 54.457,24.098 H 205.55042"
   sodipodi:nodetypes="cc" /><path
   inkscape:connector-curvature="0"
   id="path18"
   style="fill:none;stroke:#000000;stroke-width:1.59404;stroke-linecap:butt;stroke-linejoin:miter;stroke-miterlimit:10;stroke-dasharray:none;stroke-opacity:1"
   d="M 54.457,52.441 H 205.31936"
   sodipodi:nodetypes="cc" /><path
   inkscape:connector-curvature="0"
   id="path20"
   style="fill:none;stroke:#000000;stroke-width:1.59404;stroke-linecap:butt;stroke-linejoin:miter;stroke-miterlimit:10;stroke-dasharray:none;stroke-opacity:1"
   d="M 205.87327,-32.59805 H 54.457"
   sodipodi:nodetypes="cc" /><path
   inkscape:connector-curvature="0"
   id="path22"
   style="fill:none;stroke:#000000;stroke-width:1.5484;stroke-linecap:butt;stroke-linejoin:miter;stroke-miterlimit:10;stroke-dasharray:none;stroke-opacity:1"
   d="M 205.87327,-32.59805 V 427.105"
   sodipodi:nodetypes="cc" /><path
   inkscape:connector-curvature="0"
   id="path24"
   style="fill:none;stroke:#000000;stroke-width:1.59404;stroke-linecap:butt;stroke-linejoin:miter;stroke-miterlimit:10;stroke-dasharray:none;stroke-opacity:1"
   d="M 54.457,427.105 H 205.87327"
   sodipodi:nodetypes="cc" /><path
   inkscape:connector-curvature="0"
   id="path26"
   style="fill:none;stroke:#000000;stroke-width:1.5484;stroke-linecap:butt;stroke-linejoin:miter;stroke-miterlimit:10;stroke-dasharray:none;stroke-opacity:1"
   d="M 54.457,427.105 V -32.59805"
   sodipodi:nodetypes="cc" /><g
   id="g28"
   transform="translate(3.4242587,-35.413136)"><text
   id="text32"
   style="font-variant:normal;font-weight:normal;font-size:11.2px;font-family:'DejaVu Sans';-inkscape-font-specification:DejaVuSans;writing-mode:lr-tb;fill:#000000;fill-opacity:1;fill-rule:nonzero;stroke:none"
   transform="matrix(1,0,0,-1,65.9086,13.3301)"
   y="0"><tspan
     id="tspan30"
     sodipodi:role="line"
     y="0"
     x="0 3.3039999 10.4048 14.7952 21.683201 26.107103 30.710304 37.844704 44.956703 49.347103 52.908703 59.696068 66.584068 72.710464 77.100868 83.955269 88.558464 92.120064 96.510468 103.43192 110.54392 113.65752">Interrupt Vector table</tspan></text>


</g><path
   inkscape:connector-curvature="0"
   id="path34"
   style="fill:none;stroke:#000000;stroke-width:1.59404;stroke-linecap:butt;stroke-linejoin:miter;stroke-miterlimit:10;stroke-dasharray:2.98883, 2.98883;stroke-dashoffset:0;stroke-opacity:1"
   d="M 54.457,80.789 H 206.00421"
   sodipodi:nodetypes="cc" /><path
   inkscape:connector-curvature="0"
   id="path36"
   style="fill:none;stroke:#000000;stroke-width:1.59404;stroke-linecap:butt;stroke-linejoin:miter;stroke-miterlimit:10;stroke-dasharray:none;stroke-opacity:1"
   d="M 54.457,285.371 H 205.4335"
   sodipodi:nodetypes="cc" /><text
   transform="scale(1,-1)"
   style="font-variant:normal;font-weight:normal;font-size:12.8px;font-family:'DejaVu Sans';-inkscape-font-specification:DejaVuSans;writing-mode:lr-tb;fill:#000000;fill-opacity:1;fill-rule:nonzero;stroke:none"
   id="text46"
   x="103.041"
   y="-61.255997"><tspan
     x="103.041 112.897 118.1578 121.7162 129.29379 137.1658 142.42661"
     y="-61.255997"
     sodipodi:role="line"
     id="tspan44">Drivers</tspan></text>


<text
   transform="scale(1,-1)"
   style="font-variant:normal;font-weight:normal;font-size:10.4px;font-family:'DejaVu Sans';-inkscape-font-specification:DejaVuSans;writing-mode:lr-tb;fill:#000000;fill-opacity:1;fill-rule:nonzero;stroke:none"
   id="text50"
   x="59.178501"
   y="-34.4767"><tspan
     x="59.178501 66.437698 74.622498 83.597702 92.572899 99.686501 107.4657 115.4737 118.7809 126.0401 134.2249 143.23137 146.53856 155.25377 158.56096 161.62897 169.39775 172.70494 179.30894 185.66335"
     y="-34.4767"
     sodipodi:role="line"
     id="tspan48">COMMAND.COM + IO.SYS</tspan></text>


<text
   transform="scale(1,-1)"
   style="font-variant:normal;font-weight:normal;font-size:12.8px;font-family:'DejaVu Sans';-inkscape-font-specification:DejaVuSans;writing-mode:lr-tb;fill:#000000;fill-opacity:1;fill-rule:nonzero;stroke:none"
   id="text60"
   x="98.323235"
   y="-5.4382362"><tspan
     sodipodi:role="line"
     id="tspan58"
     x="98.323235"
     y="-5.4382362">BIOS Data</tspan></text>


<path
   inkscape:connector-curvature="0"
   id="path66"
   style="fill:#000000;fill-opacity:1;fill-rule:nonzero;stroke:none;stroke-width:0.1"
   d="m 222.43,357.402 c -0.383,0.114 -0.692,0.328 -0.926,0.645 -0.305,0.418 -0.535,0.945 -0.688,1.586 -0.156,0.644 -0.246,1.519 -0.269,2.633 -0.008,0.546 -0.008,1.8 -0.004,3.761 0.008,1.957 0.34,54.383 0.223,55.254 -0.121,0.871 -0.309,1.59 -0.567,2.149 -0.261,0.558 -0.594,1 -0.996,1.32 -0.246,0.188 -0.637,0.348 -1.172,0.473 l -0.527,0.125 -0.024,-2.797 0.293,-0.067 c 0.657,-0.156 1.09,-0.484 1.297,-0.992 0.203,-0.504 -0.09,-52.531 -0.101,-54.062 -0.02,-2.766 -0.012,-4.532 0.027,-5.301 0.07,-1.477 0.246,-2.637 0.524,-3.481 0.277,-0.843 0.722,-1.617 1.332,-2.32 -0.692,-0.394 -1.2,-1.117 -1.516,-2.164 -0.32,-1.047 -0.488,-2.848 -0.508,-5.398 -0.019,-2.278 -0.039,-3.621 -0.07,-4.028 -0.039,-0.633 -0.539,-55.761 -0.66,-56.078 -0.09,-0.215 -0.231,-0.371 -0.422,-0.461 -0.196,-0.094 -0.598,-0.066 -1.219,0.082 l -0.023,-2.797 0.527,-0.121 c 0.625,-0.148 1.082,-0.152 1.375,-0.019 0.418,0.195 0.762,0.594 1.019,1.195 0.258,0.598 0.43,1.441 0.512,2.523 0.063,0.77 0.524,56.879 0.543,59.012 0.024,2.18 0.102,3.641 0.227,4.383 0.129,0.742 0.343,1.289 0.64,1.641 0.297,0.351 0.672,0.488 1.129,0.402 z" /><path
   inkscape:connector-curvature="0"
   id="path68"
   style="fill:#000000;fill-opacity:1;fill-rule:nonzero;stroke:none;stroke-width:0.110757"
   d="m 222.445,179.26948 c -0.414,-0.0332 -0.75,-0.2294 -1.007,-0.60846 -0.333,-0.49314 -0.583,-1.17396 -0.758,-2.04126 -0.172,-0.8722 -0.278,-2.10383 -0.313,-3.6949 -0.015,-0.78019 -0.031,-2.59207 -0.043,-5.40985 -0.015,-2.8227 -0.199,-78.375451 -0.336,-79.593581 -0.136,-1.212002 -0.347,-2.174974 -0.633,-2.888927 -0.285,-0.718864 -0.644,-1.236546 -1.085,-1.557957 -0.266,-0.18645 -0.688,-0.277224 -1.27,-0.272324 l -0.566,0.0044 0.007,4.024888 h 0.313 c 0.711,-0.0044 1.18,0.321411 1.406,0.977705 0.227,0.656305 0.449,75.625116 0.453,77.834456 0.004,3.98195 0.032,6.52127 0.082,7.61428 0.09,2.09891 0.289,3.71329 0.598,4.83452 0.309,1.11264 0.797,2.07072 1.461,2.86562 -0.742,0.81087 -1.281,2.02778 -1.613,3.64706 -0.332,1.61928 -0.496,4.26531 -0.489,7.9406 0.004,3.28638 -0.007,5.22706 -0.035,5.82202 -0.039,0.92495 -0.008,80.42652 -0.137,80.92581 -0.093,0.3447 -0.242,0.61335 -0.449,0.80962 -0.207,0.20118 -0.644,0.30178 -1.312,0.3116 l 0.004,4.02488 0.57,-0.004 c 0.676,-0.01 1.168,-0.15825 1.48,-0.45022 0.45,-0.42688 0.813,-1.12121 1.086,-2.0707 0.274,-0.95316 0.45,-2.22283 0.528,-3.81879 0.058,-1.12614 -0.024,-82.02249 -0.024,-85.09912 0.004,-3.14899 0.071,-5.27614 0.199,-6.39246 0.133,-1.10649 0.356,-1.97012 0.672,-2.57856 0.317,-0.61338 0.723,-0.93354 1.215,-0.97281 z" /><path
   inkscape:connector-curvature="0"
   id="path70"
   style="fill:#000000;fill-opacity:1;fill-rule:nonzero;stroke:none;stroke-width:0.1"
   d="m 222.398,29.4531 c -0.406,-0.0582 -0.734,-0.0121 -0.988,0.1489 -0.324,0.2101 -0.57,0.5429 -0.742,0.9921 -0.168,0.4528 -0.266,1.1129 -0.297,1.9879 -0.012,0.434 -0.019,1.4301 -0.023,2.9879 -0.008,1.5633 0.054,43.3871 -0.078,44.0321 -0.129,0.648 -0.336,1.144 -0.614,1.488 -0.277,0.344 -0.633,0.562 -1.066,0.66 -0.258,0.051 -0.676,0.023 -1.246,-0.086 l -0.559,-0.109 -0.008,-2.227 0.309,0.059 c 0.699,0.133 1.16,0.039 1.383,-0.282 0.219,-0.32 0.203,-41.812 0.199,-43.0351 -0.008,-2.207 0.012,-3.6051 0.055,-4.2027 0.082,-1.1481 0.273,-2.0043 0.574,-2.566 0.305,-0.5633 0.777,-1 1.43,-1.3211 -0.735,-0.5852 -1.266,-1.359 -1.598,-2.316 -0.332,-0.9571 -0.504,-2.4571 -0.508,-4.4922 -0.008,-1.8168 -0.023,-2.8949 -0.051,-3.2309 -0.043,-0.5191 -0.265,-44.5578 -0.39,-44.85506 -0.094,-0.20703 -0.242,-0.38672 -0.446,-0.53477 -0.203,-0.14922 -0.636,-0.28515 -1.293,-0.41015 l -0.007,-2.23086 0.558,0.10976 c 0.664,0.125 1.153,0.3 1.457,0.51914 0.449,0.32383 0.809,0.77305 1.078,1.35196 0.27,0.57812 0.45,1.31211 0.532,2.21093 0.062,0.63594 0.234,45.43325 0.246,47.14025 0.011,1.7418 0.086,2.9379 0.218,3.5738 0.129,0.641 0.352,1.161 0.668,1.559 0.313,0.3949 0.711,0.648 1.2,0.7621 z" /><text
   transform="scale(1,-1)"
   style="font-variant:normal;font-weight:normal;font-size:13px;font-family:'DejaVu Sans';-inkscape-font-specification:DejaVuSans;writing-mode:lr-tb;fill:#000000;fill-opacity:1;fill-rule:nonzero;stroke:none"
   id="text82"
   x="0.1256641"
   y="8.0421991"><tspan
     x="0.1256641 8.3936634 16.661665 24.929667 33.197662 41.465664"
     y="8.0421991"
     sodipodi:role="line"
     id="tspan78">00400h</tspan><tspan
     x="-0.080194905 8.1878052 16.455807 24.723806 32.991806 41.259804"
     y="-20.060104"
     sodipodi:role="line"
     id="tspan80">00500h</tspan></text>


<path
   inkscape:connector-curvature="0"
   id="path84"
   style="fill:none;stroke:#000000;stroke-width:1.59404;stroke-linecap:butt;stroke-linejoin:miter;stroke-miterlimit:10;stroke-dasharray:none;stroke-opacity:1"
   d="M 55.5199,347.43 H 205.58236"
   sodipodi:nodetypes="cc" /><path
   inkscape:connector-curvature="0"
   id="path86"
   style="fill:none;stroke:#000000;stroke-width:1.59404;stroke-linecap:butt;stroke-linejoin:miter;stroke-miterlimit:10;stroke-dasharray:none;stroke-opacity:1"
   d="M 54.523,317.508 H 206.07021"
   sodipodi:nodetypes="cc" /><text
   transform="scale(1,-1)"
   style="font-variant:normal;font-weight:normal;font-size:13px;font-family:'DejaVu Sans';-inkscape-font-specification:DejaVuSans;writing-mode:lr-tb;fill:#000000;fill-opacity:1;fill-rule:nonzero;stroke:none"
   id="text92"
   x="-0.4329949"
   y="-312.66199"><tspan
     x="-0.4329949 8.4850054 16.753006 25.021006 33.289005 41.557007"
     y="-312.66199"
     sodipodi:role="line"
     id="tspan90">B0000h</tspan></text>
<text
   transform="scale(1,-1)"
   style="font-variant:normal;font-weight:normal;font-size:11px;font-family:'DejaVu Sans';-inkscape-font-specification:DejaVuSans;writing-mode:lr-tb;fill:#000000;fill-opacity:1;fill-rule:nonzero;stroke:none"
   id="text100"
   x="57.741104"
   y="-297.56039"><tspan
     x="57.741104"
     sodipodi:role="line"
     id="tspan98"
     y="-297.56039">EGA/VGA Video Mapping</tspan></text>
<text
   transform="scale(1,-1)"
   style="font-variant:normal;font-weight:normal;font-size:13px;font-family:'DejaVu Sans';-inkscape-font-specification:DejaVuSans;writing-mode:lr-tb;fill:#000000;fill-opacity:1;fill-rule:nonzero;stroke:none"
   id="text108"
   x="6.1131053"
   y="-401.25421"><tspan
     x="63.961506 73.971504 81.966507 89.662506 93.276505 100.42651 108.42151 115.1945 119.32851 131.99051 139.9595 148.21449 156.4695 164.46449 172.7195 176.8535 180.68849 185.12135"
     y="-401.25421"
     sodipodi:role="line"
     id="tspan104">Devices mapped I/O</tspan><tspan
     x="114.03181 122.94981 126.78481 137.01579"
     y="-363.75421"
     sodipodi:role="line"
     id="tspan106">BIOS</tspan></text>
<text
   y="-49.26535"
   x="-0.080194905"
   transform="scale(1,-1)"
   style="font-variant:normal;font-weight:normal;font-size:13px;font-family:'DejaVu Sans';-inkscape-font-specification:DejaVuSans;writing-mode:lr-tb;fill:#000000;fill-opacity:1;fill-rule:nonzero;stroke:none"
   id="text112"><tspan
     x="-0.080194905 8.1878042 16.455805 24.723806 32.991802 41.259804"
     y="-49.26535"
     sodipodi:role="line"
     id="tspan110">00600h</tspan></text>
<text
   xml:space="preserve"
   style="font-style:normal;font-variant:normal;font-weight:normal;font-stretch:normal;font-size:16px;line-height:1.25;font-family:sans-serif;-inkscape-font-specification:'sans-serif, Normal';font-variant-ligatures:normal;font-variant-caps:normal;font-variant-numeric:normal;font-feature-settings:normal;text-align:start;letter-spacing:0px;word-spacing:0px;writing-mode:lr-tb;text-anchor:start;fill:#000000;fill-opacity:1;stroke:none;stroke-width:0.75"
   x="232.32735"
   y="-351.55722"
   id="text1003"
   transform="scale(1,-1)"><tspan
     sodipodi:role="line"
     id="tspan1001"
     x="232.32735"
     y="-351.55722"
     style="font-style:normal;font-variant:normal;font-weight:normal;font-stretch:normal;font-size:14px;font-family:sans-serif;-inkscape-font-specification:'sans-serif, Normal';font-variant-ligatures:normal;font-variant-caps:normal;font-variant-numeric:normal;font-feature-settings:normal;text-align:start;writing-mode:lr-tb;text-anchor:start;stroke-width:0.75">UMA</tspan></text>


<text
   xml:space="preserve"
   style="font-style:normal;font-variant:normal;font-weight:normal;font-stretch:normal;font-size:16px;line-height:1.25;font-family:sans-serif;-inkscape-font-specification:'sans-serif, Normal';font-variant-ligatures:normal;font-variant-caps:normal;font-variant-numeric:normal;font-feature-settings:normal;text-align:start;letter-spacing:0px;word-spacing:0px;writing-mode:lr-tb;text-anchor:start;fill:#000000;fill-opacity:1;stroke:none;stroke-width:0.75"
   x="232.32735"
   y="-176.8252"
   id="text1007"
   transform="scale(1,-1)"><tspan
     sodipodi:role="line"
     id="tspan1005"
     x="232.32735"
     y="-176.8252"
     style="font-style:normal;font-variant:normal;font-weight:normal;font-stretch:normal;font-size:14px;font-family:sans-serif;-inkscape-font-specification:'sans-serif, Normal';font-variant-ligatures:normal;font-variant-caps:normal;font-variant-numeric:normal;font-feature-settings:normal;text-align:start;writing-mode:lr-tb;text-anchor:start;stroke-width:0.75">Usable RAM</tspan></text>


<text
   xml:space="preserve"
   style="font-style:normal;font-variant:normal;font-weight:normal;font-stretch:normal;font-size:16px;line-height:1.25;font-family:sans-serif;-inkscape-font-specification:'sans-serif, Normal';font-variant-ligatures:normal;font-variant-caps:normal;font-variant-numeric:normal;font-feature-settings:normal;text-align:start;letter-spacing:0px;word-spacing:0px;writing-mode:lr-tb;text-anchor:start;fill:#000000;fill-opacity:1;stroke:none;stroke-width:0.75"
   x="232.62129"
   y="-24.39724"
   id="text1011"
   transform="scale(1,-1)"><tspan
     sodipodi:role="line"
     id="tspan1009"
     x="232.62129"
     y="-24.39724"
     style="font-style:normal;font-variant:normal;font-weight:normal;font-stretch:normal;font-size:14px;font-family:sans-serif;-inkscape-font-specification:'sans-serif, Normal';font-variant-ligatures:normal;font-variant-caps:normal;font-variant-numeric:normal;font-feature-settings:normal;text-align:start;writing-mode:lr-tb;text-anchor:start;stroke-width:0.75">System RAM</tspan></text>


<text
   style="font-variant:normal;font-weight:normal;font-size:13px;font-family:'DejaVu Sans';-inkscape-font-specification:DejaVuSans;writing-mode:lr-tb;fill:#000000;fill-opacity:1;fill-rule:nonzero;stroke:none;stroke-width:1"
   id="text82-4"
   x="3.6099701"
   y="-419.97867"
   transform="scale(1,-1)"><tspan
     style="stroke-width:1"
     sodipodi:role="line"
     id="tspan80-7"
     x="3.6099701"
     y="-419.97867">FFFFFh</tspan></text>

<text
   style="font-variant:normal;font-weight:normal;font-size:13px;font-family:'DejaVu Sans';-inkscape-font-specification:DejaVuSans;writing-mode:lr-tb;fill:#000000;fill-opacity:1;fill-rule:nonzero;stroke:none;stroke-width:1"
   id="text82-4-7"
   x="-0.33194908"
   y="-281.0997"
   transform="scale(1,-1)"><tspan
     style="stroke-width:1"
     sodipodi:role="line"
     id="tspan80-7-4"
     x="-0.33194908"
     y="-281.0997">A0000h</tspan></text>

<text
   style="font-variant:normal;font-weight:normal;font-size:13px;font-family:'DejaVu Sans';-inkscape-font-specification:DejaVuSans;writing-mode:lr-tb;fill:#000000;fill-opacity:1;fill-rule:nonzero;stroke:none;stroke-width:1"
   id="text82-4-7-9"
   x="-0.080194846"
   y="32.889599"
   transform="scale(1,-1)"><tspan
     style="stroke-width:1"
     sodipodi:role="line"
     id="tspan80-7-4-8"
     x="-0.080194846"
     y="32.889599">00000h</tspan></text>

<text
   style="font-variant:normal;font-weight:normal;font-size:11px;font-family:'DejaVu Sans';-inkscape-font-specification:DejaVuSans;writing-mode:lr-tb;fill:#000000;fill-opacity:1;fill-rule:nonzero;stroke:none;stroke-width:1"
   id="text100-6"
   x="58.696182"
   y="-329.34036"
   transform="scale(1,-1)"><tspan
     style="stroke-width:1"
     x="58.696182"
     sodipodi:role="line"
     id="tspan98-8"
     y="-329.34036">Mono/CGA Video Mapping</tspan></text>
<text
   style="font-variant:normal;font-weight:normal;font-size:13px;font-family:'DejaVu Sans';-inkscape-font-specification:DejaVuSans;writing-mode:lr-tb;fill:#000000;fill-opacity:1;fill-rule:nonzero;stroke:none;stroke-width:1"
   id="text92-0"
   x="-0.64220756"
   y="-343.80368"
   transform="scale(1,-1)"><tspan
     style="stroke-width:1"
     sodipodi:role="line"
     id="tspan90-5"
     x="-0.64220756"
     y="-343.80368">C0000h</tspan></text>
</g></svg>
