<?xml version="1.0" encoding="UTF-8" standalone="no"?>
<!-- Created with Inkscape (http://www.inkscape.org/) -->

<svg
   width="150.37355mm"
   height="53.689018mm"
   viewBox="0 0 150.37355 53.689018"
   version="1.1"
   id="svg1"
   xml:space="preserve"
   inkscape:version="1.4.3 (0d15f75042, 2025-12-25)"
   sodipodi:docname="waveforms.svg"
   xmlns:inkscape="http://www.inkscape.org/namespaces/inkscape"
   xmlns:sodipodi="http://sodipodi.sourceforge.net/DTD/sodipodi-0.dtd"
   xmlns="http://www.w3.org/2000/svg"
   xmlns:svg="http://www.w3.org/2000/svg"><sodipodi:namedview
     id="namedview1"
     pagecolor="#ffffff"
     bordercolor="#000000"
     borderopacity="0.25"
     inkscape:showpageshadow="2"
     inkscape:pageopacity="0.0"
     inkscape:pagecheckerboard="0"
     inkscape:deskcolor="#d1d1d1"
     inkscape:document-units="mm"
     inkscape:zoom="2.2877104"
     inkscape:cx="273.63603"
     inkscape:cy="148.62021"
     inkscape:window-width="2560"
     inkscape:window-height="1528"
     inkscape:window-x="0"
     inkscape:window-y="1440"
     inkscape:window-maximized="1"
     inkscape:current-layer="layer1" /><defs
     id="defs1" /><g
     inkscape:label="Layer 1"
     inkscape:groupmode="layer"
     id="layer1"
     transform="translate(-13.62742,-85.396692)"><g
       id="g6"
       transform="matrix(1.0000058,0,0,0.81775913,-5.1051455e-4,15.563098)"><path
         style="fill:#6399ff;stroke:#000000;stroke-width:0.1;stroke-linejoin:round;stroke-dasharray:none;stroke-dashoffset:0"
         d="M 13.832622,97.709979 80.449846,97.55432"
         id="path1"
         sodipodi:nodetypes="cc" /><path
         style="fill:#6399ff;stroke:#000000;stroke-width:0.1;stroke-linejoin:round;stroke-dasharray:none;stroke-dashoffset:0"
         d="m 13.754202,85.552172 0.15684,24.315618"
         id="path1-4"
         sodipodi:nodetypes="cc" /><g
         id="g4"
         transform="matrix(0.80085584,0,0,1.0011363,2.7860161,-0.11085175)"
         style="stroke:#291ca9;stroke-width:0.558401;stroke-dasharray:none;stroke-opacity:1"><g
           id="g3"
           style="stroke:#291ca9;stroke-width:0.558401;stroke-dasharray:none;stroke-opacity:1"><g
             id="g2"
             style="stroke:#291ca9;stroke-width:0.558401;stroke-dasharray:none;stroke-opacity:1"><path
               style="fill:none;stroke:#291ca9;stroke-width:0.558401;stroke-linejoin:round;stroke-dasharray:none;stroke-opacity:1"
               d="m 13.793501,97.709805 c 0,0 2.300669,-5.245658 3.525716,-7.846487 0.324218,-0.68833 0.595378,-1.413734 1.011974,-2.052863 0.327823,-0.502935 0.7056,-0.98431 1.156542,-1.380621 0.23195,-0.203849 0.490215,-0.393907 0.780666,-0.498759 0.219259,-0.07915 0.693925,-0.08674 0.693925,-0.08674"
               id="path2"
               sodipodi:nodetypes="caaaac" /><path
               style="fill:none;stroke:#291ca9;stroke-width:0.558401;stroke-linejoin:round;stroke-dasharray:none;stroke-opacity:1"
               d="m 27.872662,97.554319 c 0,0 -2.106445,-5.158995 -3.267231,-7.691001 -0.317936,-0.693509 -0.595378,-1.413734 -1.011974,-2.052863 -0.327823,-0.502935 -0.7056,-0.98431 -1.156542,-1.380621 -0.23195,-0.203849 -0.490215,-0.393907 -0.780666,-0.498759 -0.219259,-0.07915 -0.693925,-0.08674 -0.693925,-0.08674"
               id="path2-0"
               sodipodi:nodetypes="caaaac" /></g><g
             id="g2-6"
             transform="matrix(1,0,0,-1,13.820676,195.10864)"
             style="stroke:#291ca9;stroke-width:0.558401;stroke-dasharray:none;stroke-opacity:1"><path
               style="fill:none;stroke:#291ca9;stroke-width:0.558401;stroke-linejoin:round;stroke-dasharray:none;stroke-opacity:1"
               d="m 14.051986,97.554319 c 0,0 2.106445,-5.158995 3.267231,-7.691001 0.317936,-0.693509 0.595378,-1.413734 1.011974,-2.052863 0.327823,-0.502935 0.7056,-0.98431 1.156542,-1.380621 0.23195,-0.203849 0.490215,-0.393907 0.780666,-0.498759 0.219259,-0.07915 0.693925,-0.08674 0.693925,-0.08674"
               id="path2-2"
               sodipodi:nodetypes="caaaac" /><path
               style="fill:none;stroke:#291ca9;stroke-width:0.558401;stroke-linejoin:round;stroke-dasharray:none;stroke-opacity:1"
               d="m 27.872662,97.554319 c 0,0 -2.106445,-5.158995 -3.267231,-7.691001 -0.317936,-0.693509 -0.595378,-1.413734 -1.011974,-2.052863 -0.327823,-0.502935 -0.7056,-0.98431 -1.156542,-1.380621 -0.23195,-0.203849 -0.490215,-0.393907 -0.780666,-0.498759 -0.219259,-0.07915 -0.693925,-0.08674 -0.693925,-0.08674"
               id="path2-0-6"
               sodipodi:nodetypes="caaaac" /></g></g><g
           id="g3-2"
           transform="translate(27.641352)"
           style="stroke:#291ca9;stroke-width:0.558401;stroke-dasharray:none;stroke-opacity:1"><g
             id="g2-0"
             style="stroke:#291ca9;stroke-width:0.558401;stroke-dasharray:none;stroke-opacity:1"><path
               style="fill:none;stroke:#291ca9;stroke-width:0.558401;stroke-linejoin:round;stroke-dasharray:none;stroke-opacity:1"
               d="m 14.051986,97.554319 c 0,0 2.106445,-5.158995 3.267231,-7.691001 0.317936,-0.693509 0.595378,-1.413734 1.011974,-2.052863 0.327823,-0.502935 0.7056,-0.98431 1.156542,-1.380621 0.23195,-0.203849 0.490215,-0.393907 0.780666,-0.498759 0.219259,-0.07915 0.693925,-0.08674 0.693925,-0.08674"
               id="path2-23"
               sodipodi:nodetypes="caaaac" /><path
               style="fill:none;stroke:#291ca9;stroke-width:0.558401;stroke-linejoin:round;stroke-dasharray:none;stroke-opacity:1"
               d="m 27.872662,97.554319 c 0,0 -2.106445,-5.158995 -3.267231,-7.691001 -0.317936,-0.693509 -0.595378,-1.413734 -1.011974,-2.052863 -0.327823,-0.502935 -0.7056,-0.98431 -1.156542,-1.380621 -0.23195,-0.203849 -0.490215,-0.393907 -0.780666,-0.498759 -0.219259,-0.07915 -0.693925,-0.08674 -0.693925,-0.08674"
               id="path2-0-7"
               sodipodi:nodetypes="caaaac" /></g><g
             id="g2-6-5"
             transform="matrix(1,0,0,-1,13.820676,195.10864)"
             style="stroke:#291ca9;stroke-width:0.558401;stroke-dasharray:none;stroke-opacity:1"><path
               style="fill:none;stroke:#291ca9;stroke-width:0.558401;stroke-linejoin:round;stroke-dasharray:none;stroke-opacity:1"
               d="m 14.051986,97.554319 c 0,0 2.106445,-5.158995 3.267231,-7.691001 0.317936,-0.693509 0.595378,-1.413734 1.011974,-2.052863 0.327823,-0.502935 0.7056,-0.98431 1.156542,-1.380621 0.23195,-0.203849 0.490215,-0.393907 0.780666,-0.498759 0.219259,-0.07915 0.693925,-0.08674 0.693925,-0.08674"
               id="path2-2-9"
               sodipodi:nodetypes="caaaac" /><path
               style="fill:none;stroke:#291ca9;stroke-width:0.558401;stroke-linejoin:round;stroke-dasharray:none;stroke-opacity:1"
               d="m 27.872662,97.554319 c 0,0 -2.106445,-5.158995 -3.267231,-7.691001 -0.317936,-0.693509 -0.595378,-1.413734 -1.011974,-2.052863 -0.327823,-0.502935 -0.7056,-0.98431 -1.156542,-1.380621 -0.23195,-0.203849 -0.490215,-0.393907 -0.780666,-0.498759 -0.219259,-0.07915 -0.693925,-0.08674 -0.693925,-0.08674"
               id="path2-0-6-2"
               sodipodi:nodetypes="caaaac" /></g></g><g
           id="g3-2-3"
           transform="translate(55.282704)"
           style="stroke:#291ca9;stroke-width:0.558401;stroke-dasharray:none;stroke-opacity:1"><g
             id="g2-0-6"
             style="stroke:#291ca9;stroke-width:0.558401;stroke-dasharray:none;stroke-opacity:1"><path
               style="fill:none;stroke:#291ca9;stroke-width:0.558401;stroke-linejoin:round;stroke-dasharray:none;stroke-opacity:1"
               d="m 14.051986,97.554319 c 0,0 2.106445,-5.158995 3.267231,-7.691001 0.317936,-0.693509 0.595378,-1.413734 1.011974,-2.052863 0.327823,-0.502935 0.7056,-0.98431 1.156542,-1.380621 0.23195,-0.203849 0.490215,-0.393907 0.780666,-0.498759 0.219259,-0.07915 0.693925,-0.08674 0.693925,-0.08674"
               id="path2-23-1"
               sodipodi:nodetypes="caaaac" /><path
               style="fill:none;stroke:#291ca9;stroke-width:0.558401;stroke-linejoin:round;stroke-dasharray:none;stroke-opacity:1"
               d="m 27.872662,97.554319 c 0,0 -2.106445,-5.158995 -3.267231,-7.691001 -0.317936,-0.693509 -0.595378,-1.413734 -1.011974,-2.052863 -0.327823,-0.502935 -0.7056,-0.98431 -1.156542,-1.380621 -0.23195,-0.203849 -0.490215,-0.393907 -0.780666,-0.498759 -0.219259,-0.07915 -0.693925,-0.08674 -0.693925,-0.08674"
               id="path2-0-7-2"
               sodipodi:nodetypes="caaaac" /></g><g
             id="g2-6-5-9"
             transform="matrix(1,0,0,-1,13.820676,195.10864)"
             style="stroke:#291ca9;stroke-width:0.558401;stroke-dasharray:none;stroke-opacity:1"><path
               style="fill:none;stroke:#291ca9;stroke-width:0.558401;stroke-linejoin:round;stroke-dasharray:none;stroke-opacity:1"
               d="m 14.051986,97.554319 c 0,0 2.106445,-5.158995 3.267231,-7.691001 0.317936,-0.693509 0.595378,-1.413734 1.011974,-2.052863 0.327823,-0.502935 0.7056,-0.98431 1.156542,-1.380621 0.23195,-0.203849 0.490215,-0.393907 0.780666,-0.498759 0.219259,-0.07915 0.693925,-0.08674 0.693925,-0.08674"
               id="path2-2-9-3"
               sodipodi:nodetypes="caaaac" /><path
               style="fill:none;stroke:#291ca9;stroke-width:0.558401;stroke-linejoin:round;stroke-dasharray:none;stroke-opacity:1"
               d="m 27.872662,97.554319 c 0,0 -2.106445,-5.158995 -3.267231,-7.691001 -0.317936,-0.693509 -0.595378,-1.413734 -1.011974,-2.052863 -0.327823,-0.502935 -0.7056,-0.98431 -1.156542,-1.380621 -0.23195,-0.203849 -0.490215,-0.393907 -0.780666,-0.498759 -0.219259,-0.07915 -0.693925,-0.08674 -0.693925,-0.08674"
               id="path2-0-6-2-1"
               sodipodi:nodetypes="caaaac" /></g></g></g></g><g
       id="g7"
       transform="matrix(1.0000058,0,0,0.81775913,-0.33370193,11.00728)"><path
         style="fill:#6399ff;stroke:#000000;stroke-width:0.1;stroke-linejoin:round;stroke-dasharray:none;stroke-dashoffset:0"
         d="m 14.165812,138.43082 66.617224,-0.15566"
         id="path1-0"
         sodipodi:nodetypes="cc" /><path
         style="fill:#6399ff;stroke:#000000;stroke-width:0.1;stroke-linejoin:round;stroke-dasharray:none;stroke-dashoffset:0"
         d="m 14.087392,126.27301 0.15684,24.31562"
         id="path1-4-7"
         sodipodi:nodetypes="cc" /><g
         id="g2-8"
         style="stroke:#291ca9;stroke-width:0.558401;stroke-dasharray:none;stroke-opacity:1"
         transform="matrix(0.80085584,0,0,1.0011363,3.1192056,40.609892)"><path
           style="fill:none;stroke:#291ca9;stroke-width:0.558401;stroke-linejoin:round;stroke-dasharray:none;stroke-opacity:1"
           d="m 13.793501,97.709805 c 0,0 2.300669,-5.245658 3.525716,-7.846487 0.324218,-0.68833 0.595378,-1.413734 1.011974,-2.052863 0.327823,-0.502935 0.7056,-0.98431 1.156542,-1.380621 0.23195,-0.203849 0.490215,-0.393907 0.780666,-0.498759 0.219259,-0.07915 0.693925,-0.08674 0.693925,-0.08674"
           id="path2-8"
           sodipodi:nodetypes="caaaac" /><path
           style="fill:none;stroke:#291ca9;stroke-width:0.558401;stroke-linejoin:round;stroke-dasharray:none;stroke-opacity:1"
           d="m 27.872662,97.554319 c 0,0 -2.106445,-5.158995 -3.267231,-7.691001 -0.317936,-0.693509 -0.595378,-1.413734 -1.011974,-2.052863 -0.327823,-0.502935 -0.7056,-0.98431 -1.156542,-1.380621 -0.23195,-0.203849 -0.490215,-0.393907 -0.780666,-0.498759 -0.219259,-0.07915 -0.693925,-0.08674 -0.693925,-0.08674"
           id="path2-0-4"
           sodipodi:nodetypes="caaaac" /></g><g
         id="g2-6-3"
         transform="matrix(0.80085584,0,0,1.0011363,14.187575,40.609892)"
         style="stroke:#291ca9;stroke-width:0.558401;stroke-dasharray:none;stroke-opacity:1"><path
           style="fill:none;stroke:#291ca9;stroke-width:0.558401;stroke-linejoin:round;stroke-dasharray:none;stroke-opacity:1"
           d="m 14.051986,97.554319 c 0,0 2.106445,-5.158995 3.267231,-7.691001 0.317936,-0.693509 0.595378,-1.413734 1.011974,-2.052863 0.327823,-0.502935 0.7056,-0.98431 1.156542,-1.380621 0.23195,-0.203849 0.490215,-0.393907 0.780666,-0.498759 0.219259,-0.07915 0.693925,-0.08674 0.693925,-0.08674"
           id="path2-2-1"
           sodipodi:nodetypes="caaaac" /><path
           style="fill:none;stroke:#291ca9;stroke-width:0.558401;stroke-linejoin:round;stroke-dasharray:none;stroke-opacity:1"
           d="m 27.872662,97.554319 c 0,0 -2.106445,-5.158995 -3.267231,-7.691001 -0.317936,-0.693509 -0.595378,-1.413734 -1.011974,-2.052863 -0.327823,-0.502935 -0.7056,-0.98431 -1.156542,-1.380621 -0.23195,-0.203849 -0.490215,-0.393907 -0.780666,-0.498759 -0.219259,-0.07915 -0.693925,-0.08674 -0.693925,-0.08674"
           id="path2-0-6-4"
           sodipodi:nodetypes="caaaac" /></g><g
         id="g2-0-2"
         style="stroke:#291ca9;stroke-width:0.558401;stroke-dasharray:none;stroke-opacity:1"
         transform="matrix(0.80085584,0,0,1.0011363,25.255944,40.609892)"><path
           style="fill:none;stroke:#291ca9;stroke-width:0.558401;stroke-linejoin:round;stroke-dasharray:none;stroke-opacity:1"
           d="m 14.051986,97.554319 c 0,0 2.106445,-5.158995 3.267231,-7.691001 0.317936,-0.693509 0.595378,-1.413734 1.011974,-2.052863 0.327823,-0.502935 0.7056,-0.98431 1.156542,-1.380621 0.23195,-0.203849 0.490215,-0.393907 0.780666,-0.498759 0.219259,-0.07915 0.693925,-0.08674 0.693925,-0.08674"
           id="path2-23-0"
           sodipodi:nodetypes="caaaac" /><path
           style="fill:none;stroke:#291ca9;stroke-width:0.558401;stroke-linejoin:round;stroke-dasharray:none;stroke-opacity:1"
           d="m 27.872662,97.554319 c 0,0 -2.106445,-5.158995 -3.267231,-7.691001 -0.317936,-0.693509 -0.595378,-1.413734 -1.011974,-2.052863 -0.327823,-0.502935 -0.7056,-0.98431 -1.156542,-1.380621 -0.23195,-0.203849 -0.490215,-0.393907 -0.780666,-0.498759 -0.219259,-0.07915 -0.693925,-0.08674 -0.693925,-0.08674"
           id="path2-0-7-6"
           sodipodi:nodetypes="caaaac" /></g><g
         id="g2-6-5-8"
         transform="matrix(0.80085584,0,0,1.0011363,36.324313,40.609892)"
         style="stroke:#291ca9;stroke-width:0.558401;stroke-dasharray:none;stroke-opacity:1"><path
           style="fill:none;stroke:#291ca9;stroke-width:0.558401;stroke-linejoin:round;stroke-dasharray:none;stroke-opacity:1"
           d="m 14.051986,97.554319 c 0,0 2.106445,-5.158995 3.267231,-7.691001 0.317936,-0.693509 0.595378,-1.413734 1.011974,-2.052863 0.327823,-0.502935 0.7056,-0.98431 1.156542,-1.380621 0.23195,-0.203849 0.490215,-0.393907 0.780666,-0.498759 0.219259,-0.07915 0.693925,-0.08674 0.693925,-0.08674"
           id="path2-2-9-9"
           sodipodi:nodetypes="caaaac" /><path
           style="fill:none;stroke:#291ca9;stroke-width:0.558401;stroke-linejoin:round;stroke-dasharray:none;stroke-opacity:1"
           d="m 27.872662,97.554319 c 0,0 -2.106445,-5.158995 -3.267231,-7.691001 -0.317936,-0.693509 -0.595378,-1.413734 -1.011974,-2.052863 -0.327823,-0.502935 -0.7056,-0.98431 -1.156542,-1.380621 -0.23195,-0.203849 -0.490215,-0.393907 -0.780666,-0.498759 -0.219259,-0.07915 -0.693925,-0.08674 -0.693925,-0.08674"
           id="path2-0-6-2-2"
           sodipodi:nodetypes="caaaac" /></g><g
         id="g2-0-6-6"
         style="stroke:#291ca9;stroke-width:0.558401;stroke-dasharray:none;stroke-opacity:1"
         transform="matrix(0.80085584,0,0,1.0011363,47.392682,40.609892)"><path
           style="fill:none;stroke:#291ca9;stroke-width:0.558401;stroke-linejoin:round;stroke-dasharray:none;stroke-opacity:1"
           d="m 14.051986,97.554319 c 0,0 2.106445,-5.158995 3.267231,-7.691001 0.317936,-0.693509 0.595378,-1.413734 1.011974,-2.052863 0.327823,-0.502935 0.7056,-0.98431 1.156542,-1.380621 0.23195,-0.203849 0.490215,-0.393907 0.780666,-0.498759 0.219259,-0.07915 0.693925,-0.08674 0.693925,-0.08674"
           id="path2-23-1-4"
           sodipodi:nodetypes="caaaac" /><path
           style="fill:none;stroke:#291ca9;stroke-width:0.558401;stroke-linejoin:round;stroke-dasharray:none;stroke-opacity:1"
           d="m 27.872662,97.554319 c 0,0 -2.106445,-5.158995 -3.267231,-7.691001 -0.317936,-0.693509 -0.595378,-1.413734 -1.011974,-2.052863 -0.327823,-0.502935 -0.7056,-0.98431 -1.156542,-1.380621 -0.23195,-0.203849 -0.490215,-0.393907 -0.780666,-0.498759 -0.219259,-0.07915 -0.693925,-0.08674 -0.693925,-0.08674"
           id="path2-0-7-2-9"
           sodipodi:nodetypes="caaaac" /></g><g
         id="g2-6-5-9-5"
         transform="matrix(0.80085584,0,0,1.0011363,58.461051,40.609892)"
         style="stroke:#291ca9;stroke-width:0.558401;stroke-dasharray:none;stroke-opacity:1"><path
           style="fill:none;stroke:#291ca9;stroke-width:0.558401;stroke-linejoin:round;stroke-dasharray:none;stroke-opacity:1"
           d="m 14.051986,97.554319 c 0,0 2.106445,-5.158995 3.267231,-7.691001 0.317936,-0.693509 0.595378,-1.413734 1.011974,-2.052863 0.327823,-0.502935 0.7056,-0.98431 1.156542,-1.380621 0.23195,-0.203849 0.490215,-0.393907 0.780666,-0.498759 0.219259,-0.07915 0.693925,-0.08674 0.693925,-0.08674"
           id="path2-2-9-3-0"
           sodipodi:nodetypes="caaaac" /><path
           style="fill:none;stroke:#291ca9;stroke-width:0.558401;stroke-linejoin:round;stroke-dasharray:none;stroke-opacity:1"
           d="m 27.872662,97.554319 c 0,0 -2.106445,-5.158995 -3.267231,-7.691001 -0.317936,-0.693509 -0.595378,-1.413734 -1.011974,-2.052863 -0.327823,-0.502935 -0.7056,-0.98431 -1.156542,-1.380621 -0.23195,-0.203849 -0.490215,-0.393907 -0.780666,-0.498759 -0.219259,-0.07915 -0.693925,-0.08674 -0.693925,-0.08674"
           id="path2-0-6-2-1-4"
           sodipodi:nodetypes="caaaac" /></g></g><g
       id="g8"
       transform="matrix(1.0000058,0,0,0.81775913,-5.2158735,13.995773)"><path
         style="fill:#6399ff;stroke:#000000;stroke-width:0.1;stroke-linejoin:round;stroke-dasharray:none;stroke-dashoffset:0"
         d="m 102.59852,99.47103 66.61722,-0.15566"
         id="path1-0-2"
         sodipodi:nodetypes="cc" /><path
         style="fill:#6399ff;stroke:#000000;stroke-width:0.1;stroke-linejoin:round;stroke-dasharray:none;stroke-dashoffset:0"
         d="m 102.5201,87.31322 0.15684,24.31562"
         id="path1-4-7-7"
         sodipodi:nodetypes="cc" /><g
         id="g2-8-2"
         style="stroke-width:0.558401;stroke-dasharray:none"
         transform="matrix(0.80085584,0,0,1.0011363,91.551915,1.650102)" /><g
         id="g2-0-2-1"
         style="stroke-width:0.558401;stroke-dasharray:none"
         transform="matrix(0.80085584,0,0,1.0011363,113.68865,1.650102)" /><g
         id="g2-0-6-6-9"
         style="stroke-width:0.558401;stroke-dasharray:none"
         transform="matrix(0.80085584,0,0,1.0011363,135.82539,1.650102)" /><path
         id="path5"
         style="fill:none;stroke:#291ca9;stroke-width:0.5;stroke-linejoin:round;stroke-dasharray:none;stroke-dashoffset:0;stroke-opacity:1"
         d="m 152.61319,87.59198 c 0,0 0.38014,0.0076 0.55573,0.08684 0.23261,0.104972 0.43945,0.295246 0.6252,0.499326 0.36114,0.396762 0.66369,0.878684 0.92623,1.38219 0.33363,0.639855 0.55582,1.360899 0.81044,2.055196 0.92963,2.534883 2.61658,7.699739 2.61658,7.699739 l 11.06837,9.8e-5 M 130.47645,87.591976 c 0,0 0.38014,0.0076 0.55573,0.08684 0.23261,0.104972 0.43945,0.295246 0.6252,0.499326 0.36114,0.396762 0.66369,0.878684 0.92623,1.38219 0.33363,0.639855 0.55582,1.360899 0.81044,2.055196 0.92963,2.534883 2.61658,7.699742 2.61658,7.699742 H 147.079 c 0,0 1.68696,-5.164857 2.61659,-7.69974 0.25462,-0.694297 0.47681,-1.415341 0.81044,-2.055196 0.26254,-0.503506 0.56509,-0.985428 0.92622,-1.38219 0.18576,-0.20408 0.3926,-0.394354 0.62521,-0.499326 0.17559,-0.07924 0.55573,-0.08684 0.55573,-0.08684 m -44.27348,-4e-6 c 0,0 0.38014,0.0076 0.55574,0.08684 0.23261,0.104972 0.43944,0.295246 0.6252,0.499326 0.36114,0.396762 0.66368,0.878684 0.92622,1.38219 0.33364,0.639855 0.55583,1.360899 0.81045,2.055196 0.92962,2.534883 2.61658,7.69974 2.61658,7.69974 h 11.06837 c 0,0 1.68695,-5.164857 2.61658,-7.69974 0.25462,-0.694297 0.47681,-1.415341 0.81044,-2.055196 0.26254,-0.503506 0.56509,-0.985428 0.92622,-1.38219 0.18576,-0.20408 0.3926,-0.394354 0.62521,-0.499326 0.17559,-0.07924 0.55573,-0.08684 0.55573,-0.08684 m -27.87793,11.878955 c 0,0 1.84251,-5.251619 2.82359,-7.855403 0.25965,-0.689112 0.47681,-1.415341 0.81045,-2.055196 0.26254,-0.503506 0.56508,-0.985428 0.92622,-1.38219 0.18576,-0.20408 0.39259,-0.394354 0.6252,-0.499326 0.1756,-0.07924 0.55573,-0.08684 0.55573,-0.08684"
         sodipodi:nodetypes="csssscccssssccssssccssssccssssccssssc" /></g><g
       id="g9"
       transform="matrix(1.0000058,0,0,0.81775913,-7.488947,12.715212)"><path
         style="fill:#6399ff;stroke:#000000;stroke-width:0.1;stroke-linejoin:round;stroke-dasharray:none;stroke-dashoffset:0"
         d="m 104.87158,136.34187 66.61722,-0.15566"
         id="path1-0-1"
         sodipodi:nodetypes="cc" /><path
         style="fill:#6399ff;stroke:#000000;stroke-width:0.1;stroke-linejoin:round;stroke-dasharray:none;stroke-dashoffset:0"
         d="M 104.79316,124.18406 104.95,148.49968"
         id="path1-4-7-5"
         sodipodi:nodetypes="cc" /><path
         id="path6-3"
         style="fill:none;stroke:#291ca9;stroke-width:0.499999;stroke-linejoin:round;stroke-dasharray:none;stroke-dashoffset:0;stroke-opacity:1"
         d="m 104.87158,136.34175 c 0,0 1.84251,-5.25161 2.82359,-7.8554 0.25965,-0.68911 0.47681,-1.41534 0.81045,-2.05519 0.26254,-0.50351 0.56508,-0.98543 0.92622,-1.38219 0.18576,-0.20408 0.39259,-0.39436 0.6252,-0.49933 0.1756,-0.0792 0.55573,-0.0868 0.55573,-0.0868 v 11.8656 h 5.50405 c 0,0 1.71709,-5.30719 2.64672,-7.84207 0.25462,-0.6943 0.47681,-1.41534 0.81044,-2.05519 0.26254,-0.50351 0.56509,-0.98543 0.92622,-1.38219 0.18576,-0.20408 0.3926,-0.39436 0.62521,-0.49933 0.17559,-0.0792 0.55573,-0.0868 0.55573,-0.0868 v 11.86559 h 5.50405 c 0,0 1.71709,-5.3072 2.64672,-7.84208 0.25462,-0.6943 0.47681,-1.41534 0.81044,-2.05519 0.26254,-0.50351 0.56509,-0.98543 0.92622,-1.38219 0.18576,-0.20408 0.3926,-0.39436 0.62521,-0.49933 0.17559,-0.0792 0.55573,-0.0868 0.55573,-0.0868 v 11.86559 h 5.50405 c 0,0 1.71709,-5.3072 2.64672,-7.84208 0.25462,-0.6943 0.47681,-1.41534 0.81044,-2.05519 0.26254,-0.50351 0.56509,-0.98543 0.92622,-1.38219 0.18576,-0.20408 0.3926,-0.39436 0.62521,-0.49933 0.17559,-0.0792 0.55573,-0.0868 0.55573,-0.0868 v 11.86559 h 5.50405 c 0,0 1.71709,-5.3072 2.64672,-7.84208 0.25462,-0.6943 0.47681,-1.41534 0.81044,-2.05519 0.26254,-0.50351 0.56509,-0.98543 0.92622,-1.38219 0.18576,-0.20408 0.3926,-0.39436 0.62521,-0.49933 0.17559,-0.0792 0.55573,-0.0868 0.55573,-0.0868 v 11.86559 h 5.50405 c 0,0 1.71709,-5.3072 2.64672,-7.84208 0.25462,-0.6943 0.47681,-1.41534 0.81044,-2.05519 0.26254,-0.50351 0.56509,-0.98543 0.92622,-1.38219 0.18576,-0.20408 0.3926,-0.39436 0.62521,-0.49933 0.17559,-0.0792 0.55573,-0.0868 0.55573,-0.0868 v 11.86559 h 5.50405"
         sodipodi:nodetypes="csssccccsssccccsssscccsssscccsssscccssssccc" /></g><text
       xml:space="preserve"
       style="font-weight:bold;font-size:25.4px;font-family:'TeX Gyre Adventor';-inkscape-font-specification:'TeX Gyre Adventor, Bold';text-align:center;writing-mode:lr-tb;direction:ltr;text-anchor:middle;fill:none;stroke:#291ca9;stroke-width:0.499999;stroke-linejoin:round;stroke-dasharray:none;stroke-dashoffset:0;stroke-opacity:1"
       x="69.840012"
       y="58.881508"
       id="text9"><tspan
         sodipodi:role="line"
         id="tspan9"
         style="stroke-width:0.5"
         x="69.840012"
         y="58.881508"></tspan></text><g
       id="g10"
       transform="matrix(0.35277777,0,0,-0.35277777,-37.915616,222.60741)"><text
         xml:space="preserve"
         style="font-style:normal;font-variant:normal;font-weight:normal;font-stretch:normal;font-size:8px;line-height:1.25;font-family:sans-serif;-inkscape-font-specification:'sans-serif, Normal';font-variant-ligatures:normal;font-variant-caps:normal;font-variant-numeric:normal;font-variant-east-asian:normal;text-align:start;letter-spacing:0px;word-spacing:0px;writing-mode:lr-tb;text-anchor:start;fill:#000000;fill-opacity:1;stroke:none;stroke-width:0.75"
         x="182.0096"
         y="-320.87552"
         id="text1003"
         transform="scale(1,-1)"><tspan
           sodipodi:role="line"
           id="tspan1001"
           x="182.0096"
           y="-320.87552"
           style="font-style:normal;font-variant:normal;font-weight:normal;font-stretch:normal;font-size:8px;font-family:sans-serif;-inkscape-font-specification:'sans-serif, Normal';font-variant-ligatures:normal;font-variant-caps:normal;font-variant-numeric:normal;font-variant-east-asian:normal;text-align:start;writing-mode:lr-tb;text-anchor:start;stroke-width:0.75">Waveform 0: Unmodified sine</tspan></text></g><g
       id="g10-2"
       transform="matrix(0.35277777,0,0,-0.35277777,-45.354701,261.93969)"><text
         xml:space="preserve"
         style="font-style:normal;font-variant:normal;font-weight:normal;font-stretch:normal;font-size:8px;line-height:1.25;font-family:sans-serif;-inkscape-font-specification:'sans-serif, Normal';font-variant-ligatures:normal;font-variant-caps:normal;font-variant-numeric:normal;font-variant-east-asian:normal;text-align:start;letter-spacing:0px;word-spacing:0px;writing-mode:lr-tb;text-anchor:start;fill:#000000;fill-opacity:1;stroke:none;stroke-width:0.75"
         x="166.92902"
         y="-350.05316"
         id="text1003-1"
         transform="scale(1,-1)"><tspan
           sodipodi:role="line"
           id="tspan1001-5"
           x="166.92902"
           y="-350.05316"
           style="font-style:normal;font-variant:normal;font-weight:normal;font-stretch:normal;font-size:8px;font-family:sans-serif;-inkscape-font-specification:'sans-serif, Normal';font-variant-ligatures:normal;font-variant-caps:normal;font-variant-numeric:normal;font-variant-east-asian:normal;text-align:start;writing-mode:lr-tb;text-anchor:start;stroke-width:0.75">Waveform 2: Absolute value of sine (Rectified sine)</tspan></text><text
         xml:space="preserve"
         style="font-style:normal;font-variant:normal;font-weight:normal;font-stretch:normal;font-size:8px;line-height:1.25;font-family:sans-serif;-inkscape-font-specification:'sans-serif, Normal';font-variant-ligatures:normal;font-variant-caps:normal;font-variant-numeric:normal;font-variant-east-asian:normal;text-align:start;letter-spacing:0px;word-spacing:0px;writing-mode:lr-tb;text-anchor:start;fill:#000000;fill-opacity:1;stroke:none;stroke-width:0.75"
         x="232.2027"
         y="-337.39484"
         id="text1003-1-83"
         transform="scale(1,-1)"><tspan
           sodipodi:role="line"
           id="tspan1001-5-8"
           x="232.2027"
           y="-337.39484"
           style="font-style:normal;font-variant:normal;font-weight:normal;font-stretch:normal;font-size:8px;font-family:sans-serif;-inkscape-font-specification:'sans-serif, Normal';font-variant-ligatures:normal;font-variant-caps:normal;font-variant-numeric:normal;font-variant-east-asian:normal;text-align:start;writing-mode:lr-tb;text-anchor:start;stroke-width:0.75" /></text></g><g
       id="g10-2-5"
       transform="matrix(0.35277777,0,0,-0.35277777,45.467193,232.95059)"><text
         xml:space="preserve"
         style="font-style:normal;font-variant:normal;font-weight:normal;font-stretch:normal;font-size:10px;line-height:1.25;font-family:sans-serif;-inkscape-font-specification:'sans-serif, Normal';font-variant-ligatures:normal;font-variant-caps:normal;font-variant-numeric:normal;font-variant-east-asian:normal;text-align:start;letter-spacing:0px;word-spacing:0px;writing-mode:lr-tb;text-anchor:start;fill:#000000;fill-opacity:1;stroke:none;stroke-width:0.75"
         x="166.92902"
         y="-350.05316"
         id="text1003-1-8"
         transform="scale(1,-1)"><tspan
           sodipodi:role="line"
           id="tspan1001-5-7"
           x="166.92902"
           y="-350.05316"
           style="font-style:normal;font-variant:normal;font-weight:normal;font-stretch:normal;font-size:8px;font-family:Sans;-inkscape-font-specification:'Sans, Normal';font-variant-ligatures:normal;font-variant-caps:normal;font-variant-numeric:normal;font-variant-east-asian:normal;text-align:start;writing-mode:lr-tb;text-anchor:start;stroke-width:0.75">Waveform 1: Positive portions of sine</tspan></text></g><g
       id="g10-2-5-4"
       transform="matrix(0.35277777,0,0,-0.35277777,41.112592,261.98964)"><g
         id="g12"><text
           xml:space="preserve"
           style="font-style:normal;font-variant:normal;font-weight:normal;font-stretch:normal;font-size:10px;line-height:1.25;font-family:sans-serif;-inkscape-font-specification:'sans-serif, Normal';font-variant-ligatures:normal;font-variant-caps:normal;font-variant-numeric:normal;font-variant-east-asian:normal;text-align:start;letter-spacing:0px;word-spacing:0px;writing-mode:lr-tb;text-anchor:start;fill:#000000;fill-opacity:1;stroke:none;stroke-width:0.75"
           x="166.92902"
           y="-350.05316"
           id="text1003-1-8-2"
           transform="scale(1,-1)"><tspan
             sodipodi:role="line"
             id="tspan1001-5-7-2"
             x="166.92902"
             y="-350.05316"
             style="font-style:normal;font-variant:normal;font-weight:normal;font-stretch:normal;font-size:8px;font-family:Sans;-inkscape-font-specification:'Sans, Normal';font-variant-ligatures:normal;font-variant-caps:normal;font-variant-numeric:normal;font-variant-east-asian:normal;text-align:start;writing-mode:lr-tb;text-anchor:start;stroke-width:0.75">Waveform 3: Rising portion of rectified sine</tspan></text><text
           xml:space="preserve"
           style="font-style:normal;font-variant:normal;font-weight:normal;font-stretch:normal;font-size:10px;line-height:1.25;font-family:sans-serif;-inkscape-font-specification:'sans-serif, Normal';font-variant-ligatures:normal;font-variant-caps:normal;font-variant-numeric:normal;font-variant-east-asian:normal;text-align:start;letter-spacing:0px;word-spacing:0px;writing-mode:lr-tb;text-anchor:start;fill:#000000;fill-opacity:1;stroke:none;stroke-width:0.75"
           x="233.9339"
           y="-337.53644"
           id="text1003-1-8-2-1"
           transform="scale(1,-1)"><tspan
             sodipodi:role="line"
             id="tspan1001-5-7-2-9"
             x="233.9339"
             y="-337.53644"
             style="font-style:normal;font-variant:normal;font-weight:normal;font-stretch:normal;font-size:10px;font-family:sans-serif;-inkscape-font-specification:'sans-serif, Normal';font-variant-ligatures:normal;font-variant-caps:normal;font-variant-numeric:normal;font-variant-east-asian:normal;text-align:start;writing-mode:lr-tb;text-anchor:start;stroke-width:0.75" /></text></g></g><text
       xml:space="preserve"
       style="font-style:normal;font-variant:normal;font-weight:normal;font-stretch:normal;font-size:3.52777px;font-family:sans-serif;-inkscape-font-specification:'sans-serif, Normal';font-variant-ligatures:normal;font-variant-caps:normal;font-variant-numeric:normal;font-variant-east-asian:normal;text-align:center;writing-mode:lr-tb;direction:ltr;text-anchor:middle;fill:none;stroke:#291ca9;stroke-width:0.499999;stroke-linejoin:round;stroke-dasharray:none;stroke-dashoffset:0;stroke-opacity:1"
       x="61.643688"
       y="172.67172"
       id="text10"><tspan
         sodipodi:role="line"
         id="tspan10"
         style="stroke-width:0.5"
         x="61.643688"
         y="172.67172"></tspan></text></g></svg>
