<?xml version="1.0" encoding="UTF-8" standalone="no"?>
<!-- Created with Inkscape (http://www.inkscape.org/) -->

<svg
   xmlns:dc="http://purl.org/dc/elements/1.1/"
   xmlns:cc="http://creativecommons.org/ns#"
   xmlns:rdf="http://www.w3.org/1999/02/22-rdf-syntax-ns#"
   xmlns:svg="http://www.w3.org/2000/svg"
   xmlns="http://www.w3.org/2000/svg"
   xmlns:sodipodi="http://sodipodi.sourceforge.net/DTD/sodipodi-0.dtd"
   xmlns:inkscape="http://www.inkscape.org/namespaces/inkscape"
   width="114.53083mm"
   height="113.47736mm"
   viewBox="0 0 114.53083 113.47736"
   version="1.1"
   id="svg855"
   inkscape:version="0.92.3 (2405546, 2018-03-11)"
   sodipodi:docname="AT_Diagram.svg">
  <defs
     id="defs849" />
  <sodipodi:namedview
     id="base"
     pagecolor="#ffffff"
     bordercolor="#666666"
     borderopacity="1.0"
     inkscape:pageopacity="0.0"
     inkscape:pageshadow="2"
     inkscape:zoom="0.7"
     inkscape:cx="-52.39633"
     inkscape:cy="243.76498"
     inkscape:document-units="mm"
     inkscape:current-layer="layer1"
     showgrid="false"
     inkscape:window-width="1920"
     inkscape:window-height="1012"
     inkscape:window-x="0"
     inkscape:window-y="0"
     inkscape:window-maximized="1" />
  <metadata
     id="metadata852">
    <rdf:RDF>
      <cc:Work
         rdf:about="">
        <dc:format>image/svg+xml</dc:format>
        <dc:type
           rdf:resource="http://purl.org/dc/dcmitype/StillImage" />
        <dc:title></dc:title>
      </cc:Work>
    </rdf:RDF>
  </metadata>
  <g
     inkscape:label="Layer 1"
     inkscape:groupmode="layer"
     id="layer1"
     style="display:inline"
     transform="translate(-36.283688,-53.959291)">
    <g
       id="g12"
       transform="matrix(0.03527778,0,0,-0.03527778,36.519569,168.60419)"
       sodipodi:insensitive="true"
       style="display:none">
      <path
         d="M 27.6602,1626.45 C 27.6211,748.91 739.02,37.5391 1616.56,37.5391 c 877.54,0 1588.95,711.3709 1588.95,1588.9109 0,877.53 -711.45,1589.02 -1588.95,1589.02 -877.54,0 -1588.8998,-711.49 -1588.8998,-1589.02 z"
         style="fill:#ffffff;fill-opacity:1;fill-rule:nonzero;stroke:none"
         id="path14"
         inkscape:connector-curvature="0" />
      <path
         d="M 27.6602,1626.45 C 27.6211,748.91 739.02,37.5391 1616.56,37.5391 c 877.54,0 1588.95,711.3709 1588.95,1588.9109 0,877.53 -711.45,1589.02 -1588.95,1589.02 -877.54,0 -1588.8998,-711.49 -1588.8998,-1589.02 z"
         style="fill:none;stroke:#000000;stroke-width:55.31840134;stroke-linecap:butt;stroke-linejoin:miter;stroke-miterlimit:4;stroke-dasharray:none;stroke-opacity:1"
         id="path16"
         inkscape:connector-curvature="0" />
      <path
         d="m 2623.16,2636.95 c -206.44,206.45 -460.39,336.41 -726.6,390.16 v -252.62 h -568.01 v 252.58 C 1062.34,2973.32 808.441,2843.32 601.988,2636.88 129.77,2164.65 57.2695,1444.26 384.18,895.621 H 881.641 V 397.969 C 1330.59,130.43 1894.53,130.43 2343.44,397.969 V 895.59 h 497.5 c 326.95,548.67 254.49,1269.1 -217.78,1741.36 z"
         style="fill:none;stroke:#000000;stroke-width:55.31840134;stroke-linecap:butt;stroke-linejoin:miter;stroke-miterlimit:4;stroke-dasharray:none;stroke-opacity:1"
         id="path18"
         inkscape:connector-curvature="0" />
      <path
         d="m 1362.73,1500.04 h 498.711 v 886.641 H 1362.73 Z"
         style="fill:none;stroke:#000000;stroke-width:55.31840134;stroke-linecap:butt;stroke-linejoin:miter;stroke-miterlimit:4;stroke-dasharray:none;stroke-opacity:1"
         id="path20"
         inkscape:connector-curvature="0" />
      <path
         d="m 1036.17,2234.26 c 0,-86.37 -70.041,-156.41 -156.44,-156.41 -86.371,0 -156.41,70.04 -156.41,156.41 0,86.4 70.039,156.44 156.41,156.44 86.399,0 156.44,-70.04 156.44,-156.44 z"
         style="fill:none;stroke:#000000;stroke-width:55.31840134;stroke-linecap:butt;stroke-linejoin:miter;stroke-miterlimit:4;stroke-dasharray:none;stroke-opacity:1"
         id="path22"
         inkscape:connector-curvature="0" />
      <path
         d="m 851.02,1501.6 c 0,-86.4 -70.04,-156.44 -156.411,-156.44 -86.41,0 -156.449,70.04 -156.449,156.44 0,86.41 70.039,156.41 156.449,156.41 86.371,0 156.411,-70 156.411,-156.41 z"
         style="fill:none;stroke:#000000;stroke-width:55.31840134;stroke-linecap:butt;stroke-linejoin:miter;stroke-miterlimit:4;stroke-dasharray:none;stroke-opacity:1"
         id="path24"
         inkscape:connector-curvature="0" />
      <path
         d="m 2686.09,1501.6 c 0,-86.4 -70.04,-156.44 -156.44,-156.44 -86.41,0 -156.45,70.04 -156.45,156.44 0,86.41 70.04,156.41 156.45,156.41 86.4,0 156.44,-70 156.44,-156.41 z"
         style="fill:none;stroke:#000000;stroke-width:55.31840134;stroke-linecap:butt;stroke-linejoin:miter;stroke-miterlimit:4;stroke-dasharray:none;stroke-opacity:1"
         id="path26"
         inkscape:connector-curvature="0" />
      <path
         d="m 1395.12,772.621 c 0,-86.371 -70.04,-156.41 -156.45,-156.41 -86.37,0 -156.4,70.039 -156.4,156.41 0,86.399 70.03,156.438 156.4,156.438 86.41,0 156.45,-70.039 156.45,-156.438 z"
         style="fill:none;stroke:#000000;stroke-width:55.31840134;stroke-linecap:butt;stroke-linejoin:miter;stroke-miterlimit:4;stroke-dasharray:none;stroke-opacity:1"
         id="path28"
         inkscape:connector-curvature="0" />
      <path
         d="m 2500.9,2234.3 c 0,-86.41 -70.04,-156.45 -156.45,-156.45 -86.36,0 -156.4,70.04 -156.4,156.45 0,86.36 70.04,156.4 156.4,156.4 86.41,0 156.45,-70.04 156.45,-156.4 z"
         style="fill:none;stroke:#000000;stroke-width:55.31840134;stroke-linecap:butt;stroke-linejoin:miter;stroke-miterlimit:4;stroke-dasharray:none;stroke-opacity:1"
         id="path30"
         inkscape:connector-curvature="0" />
      <path
         d="m 2141.95,772.621 c 0,-86.371 -70.04,-156.41 -156.44,-156.41 -86.37,0 -156.41,70.039 -156.41,156.41 0,86.399 70.04,156.438 156.41,156.438 86.4,0 156.44,-70.039 156.44,-156.438 z"
         style="fill:none;stroke:#000000;stroke-width:55.31840134;stroke-linecap:butt;stroke-linejoin:miter;stroke-miterlimit:4;stroke-dasharray:none;stroke-opacity:1"
         id="path32"
         inkscape:connector-curvature="0" />
    </g>
    <path
       style="display:inline;opacity:1;vector-effect:none;fill:none;fill-opacity:1;stroke:#000000;stroke-width:1.5;stroke-linecap:butt;stroke-linejoin:miter;stroke-miterlimit:4;stroke-dasharray:none;stroke-dashoffset:0;stroke-opacity:1;paint-order:normal"
       d="m 150.06452,111.22472 c 0,27.24007 -19.27193,49.97893 -44.92498,55.32579 -0.41735,0.087 -1.71911,0.0717 -2.10682,-0.22966 -4.383605,-3.40721 -8.311188,-11.00875 -9.483617,-11.00875 -1.251827,0 -5.850277,8.91055 -9.466021,11.26987 -0.362208,0.23634 -1.933956,0.009 -2.313842,-0.0713 -25.558435,-5.41907 -44.73555,-28.11299 -44.735552,-55.28596 -3e-6,-31.212603 25.302812,-56.515419 56.515415,-56.515419 31.212607,-10e-7 56.515417,25.302815 56.515417,56.515419 z"
       id="path1456"
       inkscape:connector-curvature="0"
       sodipodi:nodetypes="sssssssss" />
    <path
       style="display:inline;opacity:1;vector-effect:none;fill:none;fill-opacity:1;stroke:#000000;stroke-width:1.5;stroke-linecap:butt;stroke-linejoin:miter;stroke-miterlimit:4;stroke-dasharray:none;stroke-dashoffset:0;stroke-opacity:1;paint-order:normal"
       d="m 144.30775,111.22472 c 0,24.19419 -16.9273,44.43478 -39.58489,49.52478 -0.40789,0.0907 -0.14829,0.14492 -0.5363,-0.16183 -2.79345,-2.20881 -8.65611,-13.18054 -10.718821,-13.17549 -2.641227,-0.0153 -7.48338,10.71663 -10.862289,13.04345 -0.320939,0.22101 -0.716695,0.18249 -1.058416,0.10044 -22.240583,-5.392 -38.756575,-25.43292 -38.756579,-49.33135 -4e-6,-28.033229 22.725419,-50.758652 50.758648,-50.758652 28.033227,10e-7 50.758647,22.725424 50.758647,50.758652 z"
       id="path1456-2"
       inkscape:connector-curvature="0"
       sodipodi:nodetypes="scscscsss" />
    <circle
       style="display:inline;opacity:1;vector-effect:none;fill:none;fill-opacity:1;stroke:#000000;stroke-width:1.5;stroke-linecap:butt;stroke-linejoin:miter;stroke-miterlimit:4;stroke-dasharray:none;stroke-dashoffset:0;stroke-opacity:1;paint-order:normal"
       id="path1456-2-6"
       cx="67.421509"
       cy="89.695702"
       r="5.4620004" />
    <circle
       style="display:inline;opacity:1;vector-effect:none;fill:none;fill-opacity:1;stroke:#000000;stroke-width:1.5;stroke-linecap:butt;stroke-linejoin:miter;stroke-miterlimit:4;stroke-dasharray:none;stroke-dashoffset:0;stroke-opacity:1;paint-order:normal"
       id="path1456-2-6-2"
       cx="119.26263"
       cy="89.695694"
       r="5.4620004" />
    <circle
       style="display:inline;opacity:1;vector-effect:none;fill:none;fill-opacity:1;stroke:#000000;stroke-width:1.5;stroke-linecap:butt;stroke-linejoin:miter;stroke-miterlimit:4;stroke-dasharray:none;stroke-dashoffset:0;stroke-opacity:1;paint-order:normal"
       id="path1456-2-6-9"
       cx="61.20472"
       cy="115.52399"
       r="5.4620004" />
    <circle
       style="display:inline;opacity:1;vector-effect:none;fill:none;fill-opacity:1;stroke:#000000;stroke-width:1.5;stroke-linecap:butt;stroke-linejoin:miter;stroke-miterlimit:4;stroke-dasharray:none;stroke-dashoffset:0;stroke-opacity:1;paint-order:normal"
       id="path1456-2-6-9-0"
       cx="125.61668"
       cy="115.52399"
       r="5.4620004" />
    <circle
       style="display:inline;opacity:1;vector-effect:none;fill:none;fill-opacity:1;stroke:#000000;stroke-width:1.5;stroke-linecap:butt;stroke-linejoin:miter;stroke-miterlimit:4;stroke-dasharray:none;stroke-dashoffset:0;stroke-opacity:1;paint-order:normal"
       id="path1456-2-6-2-9"
       cx="93.342072"
       cy="73.562675"
       r="5.4620004" />
  </g>
</svg>
